<?xml version="1.0" encoding="UTF-8" standalone="no"?>
<!-- Created with Inkscape (http://www.inkscape.org/) -->

<svg
   width="105.41993mm"
   height="107.90038mm"
   viewBox="0 0 105.41993 107.90039"
   version="1.1"
   id="svg5"
   inkscape:version="1.1.1 (3bf5ae0d25, 2021-09-20)"
   sodipodi:docname="sharkoder pp.svg"
   xmlns:inkscape="http://www.inkscape.org/namespaces/inkscape"
   xmlns:sodipodi="http://sodipodi.sourceforge.net/DTD/sodipodi-0.dtd"
   xmlns="http://www.w3.org/2000/svg"
   xmlns:svg="http://www.w3.org/2000/svg">
  <sodipodi:namedview
     id="namedview7"
     pagecolor="#505050"
     bordercolor="#eeeeee"
     borderopacity="1"
     inkscape:pageshadow="0"
     inkscape:pageopacity="0"
     inkscape:pagecheckerboard="0"
     inkscape:document-units="mm"
     showgrid="false"
     fit-margin-top="0"
     fit-margin-left="0"
     fit-margin-right="0"
     fit-margin-bottom="0"
     inkscape:zoom="0.64"
     inkscape:cx="27.34375"
     inkscape:cy="124.21875"
     inkscape:window-width="1366"
     inkscape:window-height="745"
     inkscape:window-x="-8"
     inkscape:window-y="-8"
     inkscape:window-maximized="1"
     inkscape:current-layer="g116526" />
  <defs
     id="defs2" />
  <g
     inkscape:label="Layer 1"
     inkscape:groupmode="layer"
     id="layer1"
     transform="translate(-0.48522973,-0.55345518)">
    <path
       id="path192-9-2"
       style="fill:none;fill-opacity:0.967872;stroke:none;stroke-width:0.381944"
       d="M 21.966237,-7.7168329 A 71.389399,71.389399 0 0 0 -49.423276,63.672657 71.389399,71.389399 0 0 0 21.966222,135.06206 71.389399,71.389399 0 0 0 93.35579,63.672657 71.389399,71.389399 0 0 0 21.966237,-7.7168329 Z m 0,13.5911503 A 57.79846,57.79846 0 0 1 79.76461,63.672657 57.79846,57.79846 0 0 1 21.966237,121.47087 57.79846,57.79846 0 0 1 -35.83211,63.672657 57.79846,57.79846 0 0 1 21.966237,5.8743174 Z" />
    <g
       id="g116526"
       transform="matrix(0.96498714,0,0,0.96498714,264.23402,-21.778005)"
       style="fill:#000000;fill-opacity:1">
      <path
         id="text80359"
         style="font-size:5.64444px;line-height:1.25;font-family:Ethnocentric;-inkscape-font-specification:Ethnocentric;fill:#219c2c;fill-opacity:1;stroke-width:0.999999"
         transform="matrix(0.26458333,0,0,0.26458333,0.89865315,0.14004313)"
         d="m -665.61328,64.982422 -0.25781,0.359375 c 0.18792,-0.113317 0.37225,-0.23194 0.55078,-0.359375 z m -114.67774,31.878906 c 0.002,8.92e-4 0.004,0.003 0.006,0.0039 l 0.002,-0.002 c -0.002,-9.26e-4 -0.004,-0.0012 -0.008,-0.002 z m -120.54296,23.429692 -0.40235,0.18164 c -0.004,0.004 -0.006,0.01 -0.01,0.0137 0.12941,-0.0566 0.3373,-0.13318 0.45703,-0.1875 z m -118.10152,24.6914 -0.1934,0.26758 c 0.3405,-0.0977 0.6695,-0.17231 1.0098,-0.26758 z m 223.38081,29.18164 c -2.54891,0.13737 -4.91016,0.32925 -7.39258,0.5 l -0.5,0.69532 h 3.47657 v 9.5957 c 1.39627,-2.1888 2.87957,-4.32419 4.41601,-6.42578 z m -9.92383,0.67188 c -2.02818,0.1501 -4.22595,0.24649 -6.14062,0.41406 1.91788,0.28707 2.66797,1.17042 2.66797,3.52344 0,3.072 -1.25915,3.66992 -4.75781,3.66992 -3.49867,0 -4.75782,-0.59792 -4.75782,-3.66992 0,-1.44276 0.28256,-2.33053 0.93946,-2.8711 -1.85138,0.19788 -3.43753,0.4008 -5.04102,0.60938 -0.16194,0.68284 -0.25,1.43058 -0.25,2.26172 0,5.09866 3.05071,7.38086 9.10938,7.38086 6.05866,0 9.10937,-2.2822 9.10937,-7.38086 0,-1.5794 -0.29472,-2.8855 -0.87891,-3.9375 z m -100.09179,1.93945 c 0.636,0.33114 1.24096,0.7226 1.86328,1.07813 -0.0252,-0.31479 -0.0652,-0.61594 -0.11719,-0.90625 -0.58057,-0.0566 -1.16737,-0.11563 -1.74609,-0.17188 z m 80.76953,0.006 c -1.1048,0.15858 -2.84875,0.29585 -3.77344,0.45703 a 18.899528,18.899528 0 0 1 -0.0117,0.002 c -0.17596,0.0306 -0.35167,0.0743 -0.52734,0.10547 0.0911,0.40792 0.15039,0.86311 0.15039,1.42774 0,3.072 -1.25915,3.66992 -4.75781,3.66992 -3.23395,0 -4.53751,-0.53765 -4.71875,-3.04102 -1.3976,0.35725 -2.78408,0.69573 -4.25196,1.1211 0.65631,3.87364 3.65557,5.63086 8.97071,5.63086 6.05866,0 9.10937,-2.2822 9.10937,-7.38086 0,-0.72282 -0.067,-1.38178 -0.18945,-1.99219 z m -76.95508,0.37109 c -0.0785,0.50633 -0.125,1.04255 -0.125,1.6211 0,0.0485 0.005,0.0926 0.006,0.14062 1.52882,0.95928 3.0308,1.99009 4.49805,3.16211 -0.1367,-0.5705 -0.28612,-1.13021 -0.44922,-1.70312 a 18.899528,18.899528 0 0 1 -0.0293,-0.11328 c -0.19427,-0.69868 -0.32655,-1.66207 -0.38672,-2.77539 z m 56.8418,4.06836 c -3.9237,1.19757 -8.14835,2.61997 -13.01758,4.43164 1.18764,0.33531 2.58422,0.50196 4.20117,0.50196 4.98334,0 7.92682,-1.54823 8.81641,-4.9336 z m -173.20114,3.38868 c 0,8.5e-4 -0.01,0.003 -0.01,0.004 v 0.002 c 0.01,-0.004 -6e-4,-0.002 0.01,-0.006 z m 175.86129,13.4707 c -6.05866,0 -9.10937,2.26071 -9.10937,7.35937 0,5.09867 3.05071,7.38282 9.10937,7.38282 6.05867,0 9.10938,-2.28415 9.10938,-7.38282 0,-5.09866 -3.05071,-7.35937 -9.10938,-7.35937 z m 29.52539,0 c -6.05866,0 -9.10937,2.26071 -9.10937,7.35937 0,4.973 2.91108,7.26104 8.67578,7.3711 0.41473,-1.24411 0.81133,-2.49666 1.26172,-3.72266 -0.26734,0.01 -0.52856,0.0215 -0.82813,0.0215 -3.49866,0 -4.75781,-0.59793 -4.75781,-3.66993 0,-3.07199 1.25915,-3.64648 4.75781,-3.64648 1.63212,0 2.76078,0.13837 3.51758,0.58398 0.50929,-1.17567 1.06568,-2.32552 1.60938,-3.48242 -1.36284,-0.54549 -3.06695,-0.81445 -5.12696,-0.81445 z m -16.59765,0.23437 -2.66602,3.71289 h 3.47657 v 10.5586 h 4.41601 v -14.27149 z m -29.01758,0.1875 c 0.0161,1.40223 0.05,2.68058 0.0508,4.20117 0.54858,0.55029 0.78711,1.4096 0.78711,2.73633 0,1.40101 -0.26827,2.28431 -0.88476,2.83399 -0.0219,1.39563 -0.038,2.81944 -0.0781,4.15039 3.53212,-0.84867 5.31445,-3.09461 5.31445,-6.98438 0,-3.84494 -1.73805,-6.0726 -5.18945,-6.9375 z m 16.08984,3.29102 c 3.49867,0 4.75782,0.57449 4.75782,3.64648 0,3.072 -1.25915,3.66992 -4.75782,3.66993 -3.49866,0 -4.75586,-0.59793 -4.75586,-3.66993 0,-3.07199 1.2572,-3.64648 4.75586,-3.64648 z m -96.98828,2.72656 a 18.899528,18.899528 0 0 1 -1.41797,3.2207 c 0.84308,3.4862 3.79574,5.08204 8.84961,5.08204 3.58415,0 6.10638,-0.80753 7.57617,-2.51563 -1.20106,-0.59729 -2.23877,-1.07571 -3.97656,-1.83203 -0.75539,0.48849 -1.91223,0.63477 -3.59961,0.63477 -3.49866,0 -4.75781,-0.59793 -4.75781,-3.66993 0,-0.0426 0.005,-0.0735 0.006,-0.11523 -0.87225,-0.2675 -1.79861,-0.53653 -2.67969,-0.80469 z m 223.44531,0.73633 c -0.59671,2.28246 -1.32651,4.51617 -2.1914,6.72266 2.39846,-0.98671 3.70318,-2.86649 3.89648,-5.76172 a 18.899528,18.899528 0 0 1 -1.70508,-0.96094 z m 3.69727,2.08398 c 0.54488,2.89474 2.43877,4.57637 5.66602,5.19922 0.22287,-1.12418 0.49579,-2.29724 0.69336,-3.39648 a 18.899528,18.899528 0 0 1 -6.35938,-1.80274 z m -231.1875,17.40625 c -6.05866,0 -9.10937,2.26267 -9.10937,7.36133 0,5.09866 3.05071,7.38086 9.10937,7.38086 6.05866,0 9.10938,-2.2822 9.10938,-7.38086 0,-5.09866 -3.05072,-7.36133 -9.10938,-7.36133 z m 98.08984,0 c -6.05866,0 -9.10937,2.26267 -9.10937,7.36133 0,5.09866 3.05071,7.38086 9.10937,7.38086 6.05867,0 9.10938,-2.2822 9.10938,-7.38086 0,-5.09866 -3.05071,-7.36133 -9.10938,-7.36133 z m 20.00977,0 c -6.05866,0 -9.10937,2.26267 -9.10938,7.36133 0,5.09866 3.05072,7.38086 9.10938,7.38086 2.62011,0 4.67641,-0.42923 6.16797,-1.32617 0.43767,-3.4835 1.06938,-6.9161 1.8125,-10.38867 -1.3855,-2.06595 -4.04514,-3.02735 -7.98047,-3.02735 z m 59.05078,0 c -6.05866,0 -9.10937,2.26267 -9.10937,7.36133 0,5.09866 3.05071,7.38086 9.10937,7.38086 6.05866,0 9.10938,-2.2822 9.10938,-7.38086 0,-0.73417 -0.0709,-1.40325 -0.19727,-2.02148 -2.78505,-1.216 -5.30758,-2.75683 -7.25781,-4.5586 -0.26735,-0.24699 -0.47778,-0.50777 -0.73242,-0.75781 -0.30044,-0.0125 -0.60498,-0.0234 -0.92188,-0.0234 z m 40.02149,0 c -0.13116,0 -0.25253,0.008 -0.38086,0.01 -2.50705,2.39817 -5.42123,4.44468 -8.625,5.87695 -0.0642,0.46418 -0.10352,0.95127 -0.10352,1.47461 0,5.09866 3.05071,7.38086 9.10938,7.38086 6.05866,0 9.10937,-2.2822 9.10937,-7.38086 0,-5.09866 -3.05071,-7.36133 -9.10937,-7.36133 z m -204.24415,0.23633 -2.66796,3.71094 h 3.47851 v 10.56055 h 4.41602 v -14.27149 z m 9.51368,0 -2.66602,3.71094 h 3.47656 v 10.56055 h 4.41602 v -14.27149 z m 207.6582,0 -2.66602,3.71094 h 3.47657 v 7.31055 c 1.15134,-3.79097 2.16983,-7.45237 3.09375,-11.02149 z m -146.07617,0.96289 c -0.45105,4.548 -1.13377,8.8563 -1.9668,13.10742 3.41519,-0.88067 5.13086,-3.12064 5.13086,-6.94531 0,-2.99836 -1.06276,-5.00904 -3.16406,-6.16211 z m 81.08398,1.81055 c -0.35931,1.22106 -0.79068,2.37133 -1.11133,3.63281 a 18.899528,18.899528 0 0 1 -0.0156,0.0527 c -0.70521,2.74072 -1.21431,5.01817 -1.63281,7.19336 2.59164,-1.07603 3.90234,-3.19672 3.90234,-6.52735 0,-1.79642 -0.38703,-3.23438 -1.14258,-4.35156 z m -135.20703,0.0879 -0.61133,0.84961 h 0.89453 c -0.0948,-0.28281 -0.18624,-0.56663 -0.2832,-0.84961 z m -29.90039,0.61523 c 3.49866,0 4.75586,0.57644 4.75586,3.64844 0,3.072 -1.2572,3.66797 -4.75586,3.66797 -3.49866,0 -4.75781,-0.59597 -4.75781,-3.66797 0,-3.072 1.25915,-3.64844 4.75781,-3.64844 z m 98.08984,0 c 3.49867,0 4.75782,0.57644 4.75782,3.64844 0,3.072 -1.25915,3.66797 -4.75782,3.66797 -3.49866,0 -4.75781,-0.59597 -4.75781,-3.66797 0,-3.072 1.25915,-3.64844 4.75781,-3.64844 z m 20.00977,0 c 3.49866,0 4.75781,0.57644 4.75781,3.64844 0,3.072 -1.25915,3.66797 -4.75781,3.66797 -3.49866,0 -4.75586,-0.59597 -4.75586,-3.66797 0,-3.072 1.2572,-3.64844 4.75586,-3.64844 z m 59.05078,0 c 3.49867,0 4.75781,0.57644 4.75781,3.64844 0,3.072 -1.25914,3.66797 -4.75781,3.66797 -3.49866,0 -4.75781,-0.59597 -4.75781,-3.66797 0,-3.072 1.25915,-3.64844 4.75781,-3.64844 z m 40.02149,0 c 3.49866,0 4.75781,0.57644 4.75781,3.64844 0,3.072 -1.25915,3.66797 -4.75781,3.66797 -3.49867,0 -4.75782,-0.59597 -4.75782,-3.66797 0,-3.072 1.25915,-3.64844 4.75782,-3.64844 z m -29.04883,2.44532 c -0.0419,0.38384 -0.0703,0.78065 -0.0703,1.20312 0,5.09866 3.05072,7.38086 9.10938,7.38086 6.05866,0 9.10935,-2.2822 9.10938,-7.38086 0,-0.26006 -0.0154,-0.50852 -0.0313,-0.7539 -0.58555,0.20733 -1.15521,0.45456 -1.75781,0.61718 -0.8408,0.22732 -1.71257,0.35603 -2.58398,0.48242 -0.10196,2.75011 -1.38315,3.32227 -4.73633,3.32227 -3.49866,0 -4.75781,-0.59597 -4.75781,-3.66797 0,-0.007 0.002,-0.0123 0.002,-0.0195 -1.46376,-0.30055 -2.89649,-0.691 -4.2832,-1.18359 z m -199.49414,1.57617 c -1.07203,2.23942 -2.13068,4.4839 -3.08203,6.77344 h 3.08203 z m 44.13867,4.92969 v 1.84375 h 0.49219 c -0.15023,-0.62247 -0.33352,-1.22712 -0.49219,-1.84375 z m 276.64648,2.21093 c 0.008,0.005 0.0958,0.0961 0.21875,0.22461 -0.0996,-0.0911 -0.23273,-0.23342 -0.21875,-0.22461 z m -318.92968,11.79297 c -6.05867,0 -9.10938,2.26071 -9.10938,7.35938 0,5.09866 3.05071,7.38086 9.10938,7.38086 6.05866,0 9.10937,-2.2822 9.10937,-7.38086 0,-5.09867 -3.05071,-7.35938 -9.10937,-7.35938 z m 20.01171,0 c -6.05866,0 -9.10937,2.26071 -9.10937,7.35938 0,5.09866 3.05071,7.38086 9.10937,7.38086 6.05867,0 9.10743,-2.2822 9.10743,-7.38086 0,-5.09867 -3.04876,-7.35938 -9.10743,-7.35938 z m 69.54493,0 c -0.35378,0 -0.69409,0.008 -1.02735,0.0234 -0.4232,1.3314 -0.87724,2.60173 -1.34765,3.86523 0.64208,-0.12565 1.41745,-0.17773 2.375,-0.17773 3.49866,0 4.75781,0.57644 4.75781,3.64844 0,3.072 -1.25915,3.66992 -4.75781,3.66992 -2.6919,0 -4.04839,-0.36737 -4.53516,-1.92969 -0.5085,1.12251 -0.96923,2.23524 -1.62305,3.41211 -0.13529,0.24352 -0.17551,0.4981 -0.24804,0.74414 1.5081,1.00273 3.63965,1.48438 6.40625,1.48438 6.05866,0 9.10937,-2.2822 9.10937,-7.38086 0,-5.09867 -3.05071,-7.35938 -9.10937,-7.35938 z m 39.04101,0 c -6.05866,0 -9.10937,2.26071 -9.10937,7.35938 0,4.39531 2.27253,6.69444 6.77929,7.24609 1.17953,-0.99087 2.27716,-1.97254 3.47071,-2.96484 a 18.899528,18.899528 0 0 1 0.0586,-0.0488 l 0.83008,-0.68359 c -0.57408,0.0831 -1.23671,0.12109 -2.0293,0.12109 -3.49866,0 -4.75781,-0.59792 -4.75781,-3.66992 0,-3.072 1.25915,-3.64844 4.75781,-3.64844 2.05104,0 3.32605,0.2036 4.03516,0.98633 0.026,-1.48191 0.0971,-2.81257 0.14648,-4.20508 -1.18368,-0.32956 -2.57311,-0.49219 -4.18164,-0.49219 z m 60.03125,0 c -6.05866,0 -9.10937,2.26071 -9.10937,7.35938 0,5.09866 3.05071,7.38086 9.10937,7.38086 6.05866,0 9.10938,-2.2822 9.10938,-7.38086 0,-5.09867 -3.05072,-7.35938 -9.10938,-7.35938 z m 29.52539,0 c -6.05866,0 -9.10937,2.26071 -9.10937,7.35938 0,5.09866 3.05071,7.38086 9.10937,7.38086 6.05866,0 9.10938,-2.2822 9.10938,-7.38086 0,-5.09867 -3.05072,-7.35938 -9.10938,-7.35938 z m -47.59961,0.0918 c -0.0406,1.13838 -0.073,2.4016 -0.0996,3.7168 2.09816,0.24896 2.91993,1.10119 2.91993,3.55078 0,2.50007 -0.85653,3.35002 -3.05274,3.58398 l -0.0566,3.72852 c 4.9585,-0.39929 7.46289,-2.70148 7.46289,-7.3125 0,-4.52169 -2.40501,-6.80716 -7.17383,-7.26758 z m -137.61523,0.14258 -2.66797,3.71094 h 3.47852 v 10.56054 h 4.41601 v -14.27148 z m 69.54492,0 -2.66602,3.71094 h 3.47852 v 10.56054 h 4.41602 v -14.27148 z m 9.51563,0 -2.66602,3.71094 h 3.47656 v 10.56054 h 4.41602 v -14.27148 z m 89.55664,0 -2.66602,3.71094 h 3.47656 v 10.56054 h 4.41602 v -14.27148 z m 29.52539,0 -2.66602,3.71094 h 3.47656 v 5.3457 c 1.18386,-3.08829 2.27519,-6.08899 3.33399,-9.05664 z m -185.89453,0.30859 c -3.1629,0.94031 -4.76172,3.13609 -4.76172,6.81641 0,4.95037 2.88513,7.23978 8.59765,7.36914 -0.996,-1.55733 -1.27948,-2.57257 -1.61328,-3.44336 -0.0628,-0.16371 -0.072,-0.25292 -0.1289,-0.4082 -1.80094,-0.31835 -2.50196,-1.23009 -2.50196,-3.51758 0,-1.47723 0.29512,-2.37376 0.98633,-2.91016 -0.17154,-1.35301 -0.38473,-2.60769 -0.57812,-3.90625 z m -45.1875,3.16797 c 3.49866,0 4.75781,0.57644 4.75781,3.64844 0,3.072 -1.25915,3.66992 -4.75781,3.66992 -3.49867,0 -4.75782,-0.59792 -4.75782,-3.66992 0,-3.072 1.25915,-3.64844 4.75782,-3.64844 z m 20.01171,0 c 3.49867,0 4.75586,0.57644 4.75586,3.64844 0,3.072 -1.25719,3.66992 -4.75586,3.66992 -3.49866,0 -4.75781,-0.59792 -4.75781,-3.66992 0,-3.072 1.25915,-3.64844 4.75781,-3.64844 z m 168.61719,0 c 3.49867,0 4.75781,0.57644 4.75781,3.64844 0,3.072 -1.25914,3.66992 -4.75781,3.66992 -3.49866,0 -4.75781,-0.59792 -4.75781,-3.66992 0,-3.072 1.25915,-3.64844 4.75781,-3.64844 z m 29.52539,0 c 3.49867,0 4.75779,0.57644 4.75782,3.64844 0,3.072 -1.25915,3.66992 -4.75782,3.66992 -3.49866,0 -4.75781,-0.59792 -4.75781,-3.66992 0,-3.072 1.25915,-3.64844 4.75781,-3.64844 z m -229.52539,3.57617 c -0.60683,2.38836 -1.11204,4.79921 -1.59375,7.21875 h 1.59375 z m 49.42969,19.37891 c -6.05866,0 -9.10938,2.26071 -9.10938,7.35937 0,5.09867 3.05072,7.38282 9.10938,7.38282 6.05866,0 9.10937,-2.28415 9.10937,-7.38282 0,-5.09866 -3.05071,-7.35937 -9.10937,-7.35937 z m 39.03906,0 c -6.05866,0 -9.10742,2.26071 -9.10742,7.35937 0,5.09867 3.04876,7.38282 9.10742,7.38282 6.05866,0 9.10938,-2.28415 9.10938,-7.38282 0,-5.09866 -3.05072,-7.35937 -9.10938,-7.35937 z m 107.60547,0 c -6.05866,0 -9.10937,2.26071 -9.10937,7.35937 0,5.09867 3.05071,7.38282 9.10937,7.38282 6.05866,0 9.10938,-2.28415 9.10938,-7.38282 0,-5.09866 -3.05072,-7.35937 -9.10938,-7.35937 z m 20.01172,0 c -6.05866,0 -9.10938,2.26071 -9.10938,7.35937 0,5.09867 3.05072,7.38282 9.10938,7.38282 6.05866,0 9.10937,-2.28415 9.10937,-7.38282 0,-5.09866 -3.05071,-7.35937 -9.10937,-7.35937 z m -211.79688,0.23437 -2.66796,3.71289 h 3.47851 v 10.5586 h 4.41602 V 278.3146 Z m 9.51368,0 -2.66602,3.71289 h 3.47656 v 10.5586 h 4.41602 V 278.3146 Z m 9.51562,0 -2.66797,3.71289 h 3.47852 v 10.5586 h 4.41601 V 278.3146 Z m 9.51367,0 -2.66601,3.71289 h 3.47656 v 10.5586 h 4.41602 V 278.3146 Z m 29.52539,0 -2.66601,3.71289 h 3.47656 v 10.5586 h 4.41602 V 278.3146 Z m 9.51563,0 -2.66797,3.71289 h 3.47852 v 10.5586 h 4.41601 V 278.3146 Z m 29.52539,0 -2.66797,3.71289 h 3.47852 v 10.5586 h 4.41601 V 278.3146 Z m 9.51367,0 -2.66601,3.71289 h 3.47656 v 6.73438 c 1.4492,-1.3302 2.93673,-2.66694 4.41601,-4.00195 v -6.44532 z m 9.51563,0 -2.66797,3.71289 h 1.39648 c 1.39124,-1.24152 2.68154,-2.46777 4.09766,-3.71289 z m 59.04882,0 -2.66601,3.71289 h 3.47851 v 10.5586 h 4.41602 V 278.3146 Z m 49.53711,0 -2.66601,3.71289 h 3.47656 v 10.32032 c 1.58844,-3.46653 2.95702,-6.72338 4.41602,-10.06641 v -3.9668 z m -232.58007,0.55664 c -0.1773,1.70146 -0.35896,3.3991 -0.47461,5.10938 0.0962,0.41486 0.1582,0.87925 0.1582,1.45898 0,0.82902 -0.0943,1.47305 -0.29688,1.97852 -0.0704,1.62668 -0.18503,3.24861 -0.19921,4.88086 3.2216,-0.9316 4.84961,-3.14497 4.84961,-6.85938 0,-3.38814 -1.35541,-5.51702 -4.03711,-6.56836 z m 52.99609,2.92188 c 3.49866,0 4.75781,0.57449 4.75781,3.64648 0,3.072 -1.25915,3.66991 -4.75781,3.66993 -3.49866,0 -4.75781,-0.59793 -4.75781,-3.66993 0,-3.07199 1.25915,-3.64648 4.75781,-3.64648 z m 39.03906,0 c 3.49867,0 4.75781,0.57449 4.75781,3.64648 0,3.072 -1.25914,3.66991 -4.75781,3.66993 -3.49866,0 -4.75586,-0.59793 -4.75586,-3.66993 0,-3.07199 1.2572,-3.64648 4.75586,-3.64648 z m 107.60547,0 c 3.49866,0 4.75781,0.57449 4.75781,3.64648 0,3.072 -1.25915,3.66991 -4.75781,3.66993 -3.49866,0 -4.75586,-0.59793 -4.75586,-3.66993 0,-3.07199 1.2572,-3.64648 4.75586,-3.64648 z m 20.01172,0 c 3.49866,0 4.75781,0.57449 4.75781,3.64648 0,3.072 -1.25915,3.66991 -4.75781,3.66993 -3.49866,0 -4.75781,-0.59793 -4.75781,-3.66993 0,-3.07199 1.25915,-3.64648 4.75781,-3.64648 z m -40.89649,1.92578 a 18.899528,18.899528 0 0 1 -0.48437,0.61719 l -3.93164,3.24218 v 5.00782 h 4.41601 z m -163.81835,21.02734 c -6.05867,0 -9.10938,2.26267 -9.10938,7.36133 0,5.09866 3.05071,7.38086 9.10938,7.38086 6.05866,0 9.10937,-2.2822 9.10937,-7.38086 0,-5.09866 -3.05071,-7.36133 -9.10937,-7.36133 z m 29.52539,0 c -6.05867,0 -9.10938,2.26267 -9.10938,7.36133 0,5.09866 3.05071,7.38086 9.10938,7.38086 6.05866,0 9.10937,-2.2822 9.10937,-7.38086 0,-5.09866 -3.05071,-7.36133 -9.10937,-7.36133 z m 20.00976,0 c -6.05866,0 -9.10937,2.26267 -9.10937,7.36133 0,5.09866 3.05071,7.38086 9.10937,7.38086 6.05866,0 9.10938,-2.2822 9.10938,-7.38086 0,-5.09866 -3.05072,-7.36133 -9.10938,-7.36133 z m 20.01172,0 c -6.05866,0 -9.10937,2.26267 -9.10937,7.36133 0,5.00939 2.9517,7.29435 8.80078,7.37305 2.95692,-3.1821 5.99724,-6.38242 9.17187,-9.61133 -0.82367,-3.52284 -3.7807,-5.12305 -8.86328,-5.12305 z m 88.57617,0 c -6.05866,0 -9.10937,2.26267 -9.10937,7.36133 0,5.09866 3.05071,7.38086 9.10937,7.38086 6.05866,0 9.10938,-2.2822 9.10938,-7.38086 0,-5.09866 -3.05072,-7.36133 -9.10938,-7.36133 z m 48.55469,0 c -6.05866,0 -9.10936,2.26267 -9.10938,7.36133 0,5.09866 3.05072,7.38086 9.10938,7.38086 1.56715,0 2.92789,-0.15602 4.0918,-0.4707 -0.07,-0.33136 -0.16826,-0.70522 -0.2168,-0.9961 -0.21192,-1.26983 -0.2165,-1.93173 -0.3125,-2.86328 -0.75619,0.47198 -1.89884,0.61719 -3.5625,0.61719 -3.49866,0 -4.75781,-0.59597 -4.75781,-3.66797 0,-3.072 1.25915,-3.64844 4.75781,-3.64844 1.95014,0 3.20149,0.18069 3.92969,0.8711 0.3367,-0.46474 0.69361,-0.71406 0.83398,-1.125 0.3283,-0.96101 0.65066,-1.60123 0.95899,-2.37891 -1.44725,-0.72755 -3.35103,-1.08008 -5.72266,-1.08008 z m -193.75,0.23633 -2.66602,3.71094 h 3.47657 v 10.56055 h 4.41601 v -14.27149 z m 69.54688,0 -1.88282,2.6211 c 0.86204,-0.866 1.82817,-1.75213 2.70508,-2.6211 z m 59.05078,0 -2.66602,3.71094 h 3.47656 v 10.56055 h 4.41602 v -14.27149 z m 29.52539,0 -2.66602,3.71094 h 3.47656 v 10.56055 h 4.41602 v -14.27149 z m 9.51367,0 -2.66602,3.71094 h 3.47657 v 10.56055 h 4.41601 v -14.27149 z m 9.51562,0 -2.66601,3.71094 h 3.47656 v 10.56055 h 4.41602 v -14.27149 z m -205.25,0.46289 c 0.37819,4.19164 0.96376,8.34225 1.70899,12.45703 1.69846,-1.20025 2.56054,-3.09981 2.56055,-5.79492 0,-3.487 -1.42944,-5.64504 -4.26954,-6.66211 z m 152.40625,1.01172 c -1.52828,1.36058 -2.92036,2.70142 -4.41601,4.05859 v 8.73829 h 4.41601 z m -137.23632,2.00195 c 3.49866,0 4.75781,0.57644 4.75781,3.64844 0,3.072 -1.25915,3.66797 -4.75781,3.66797 -3.49867,0 -4.75782,-0.59597 -4.75782,-3.66797 0,-3.072 1.25915,-3.64844 4.75782,-3.64844 z m 29.52539,0 c 3.49866,0 4.75781,0.57644 4.75781,3.64844 0,3.072 -1.25915,3.66797 -4.75781,3.66797 -3.49867,0 -4.75782,-0.59597 -4.75782,-3.66797 0,-3.072 1.25915,-3.64844 4.75782,-3.64844 z m 20.00976,0 c 3.49867,0 4.75781,0.57644 4.75781,3.64844 0,3.072 -1.25914,3.66797 -4.75781,3.66797 -3.49866,0 -4.75586,-0.59597 -4.75586,-3.66797 0,-3.072 1.2572,-3.64844 4.75586,-3.64844 z m 20.01172,0 c 3.49866,0 4.75781,0.57644 4.75781,3.64844 0,3.072 -1.25915,3.66797 -4.75781,3.66797 -3.49866,0 -4.75781,-0.59597 -4.75781,-3.66797 0,-3.072 1.25915,-3.64844 4.75781,-3.64844 z m 88.57617,0 c 3.49867,0 4.75586,0.57644 4.75586,3.64844 0,3.072 -1.25719,3.66797 -4.75586,3.66797 -3.49866,0 -4.75781,-0.59597 -4.75781,-3.66797 0,-3.072 1.25915,-3.64844 4.75781,-3.64844 z m -30.45117,6.80079 c -1.27963,1.18764 -2.61662,2.38409 -3.86914,3.5664 1.92141,-0.6615 3.21003,-1.83543 3.86914,-3.5664 z m -137.18555,16.15429 c -0.28534,0 -0.55808,0.009 -0.83007,0.0195 0.35523,1.2465 0.78083,2.46595 1.16992,3.70118 3.22499,0.0413 4.41601,0.67462 4.41601,3.63867 0,2.05143 -0.58129,2.98723 -1.99609,3.39062 0.43936,1.17516 0.83432,2.36463 1.30469,3.52735 3.35445,-0.89694 5.04492,-3.12756 5.04492,-6.91797 0,-5.09867 -3.05071,-7.35938 -9.10938,-7.35938 z m 20.00977,0 c -6.05866,0 -9.10938,2.26071 -9.10938,7.35938 0,5.09866 3.05072,7.38086 9.10938,7.38086 6.05866,0 9.10937,-2.2822 9.10937,-7.38086 0,-5.09867 -3.05071,-7.35938 -9.10937,-7.35938 z m 20.00976,0 c -6.0585,0 -9.10937,2.26071 -9.10937,7.35938 0,5.09866 3.05087,7.38086 9.10937,7.38086 6.05867,0 9.10938,-2.2822 9.10938,-7.38086 0,-5.09867 -3.05071,-7.35938 -9.10938,-7.35938 z m 146.64649,0 c -6.05866,0 -9.10938,2.26071 -9.10938,7.35938 0,5.09866 3.05072,7.38086 9.10938,7.38086 6.05866,0 9.10937,-2.2822 9.10937,-7.38086 0,-5.09867 -3.05071,-7.35938 -9.10937,-7.35938 z m 20.00977,0 c -6.05867,0 -9.10938,2.26071 -9.10938,7.35938 0,5.09866 3.05071,7.38086 9.10938,7.38086 6.0585,0 9.10937,-2.2822 9.10937,-7.38086 0,-5.09867 -3.05087,-7.35938 -9.10937,-7.35938 z m -138.58008,0.0527 c -5.09004,0.3505 -7.66016,2.63466 -7.66016,7.30664 0,0.64198 0.0498,1.23921 0.14648,1.79297 2.38593,-3.00474 4.8929,-6.0365 7.51368,-9.09961 z m -15.14649,0.18164 -2.66797,3.71094 h 3.47852 v 10.56054 h 2.67383 c 0.56225,-0.74458 1.1645,-1.4996 1.74219,-2.24804 v -12.02344 z m 69.54492,0 -2.66601,3.71094 h 3.47851 v 10.56054 h 4.41407 v -14.27148 z m 9.51563,0 -2.66602,3.71094 h 3.47657 v 10.56054 h 4.41601 v -14.27148 z m 9.51367,0 -2.66601,3.71094 h 3.47656 v 10.56054 h 4.41601 v -14.27148 z m 9.51563,0 -2.66602,3.71094 h 3.47656 v 10.56054 h 4.41602 v -14.27148 z m 9.51367,0 -2.66602,3.71094 h 3.47657 v 10.56054 h 4.41601 v -14.27148 z m 9.51562,0 -2.66601,3.71094 h 3.47656 v 10.56054 h 4.41602 v -14.27148 z m 49.53516,0 -2.66602,3.71094 h 3.47657 v 10.56054 h 4.41601 v -14.27148 z m 9.51562,0 -2.66796,3.71094 h 3.47851 v 10.56054 h 4.41602 V 333.1582 c -1.3337,-0.35534 -2.67156,-0.87131 -4.00196,-1.50976 z m 8.04493,2.04492 -1.19727,1.66602 h 2.42773 c -0.008,-0.44913 -0.0779,-1.03342 -0.0527,-1.38282 0.003,-0.0413 0.008,-0.0745 0.0117,-0.11523 -0.36381,-0.0155 -0.79897,-0.12252 -1.18945,-0.16797 z m -119.69727,0.625 c -1.11627,1.13776 -2.13157,2.23126 -3.2168,3.35742 0.0475,0.32639 0.0742,0.68641 0.0742,1.09766 0,3.00872 -1.22197,3.63918 -4.55859,3.66406 -1.08534,1.15646 -2.22403,2.33389 -3.27344,3.47461 0.92035,0.16222 1.94438,0.24219 3.07422,0.24219 6.05866,0 9.10937,-2.2822 9.10938,-7.38086 0,-1.85086 -0.40702,-3.32445 -1.20899,-4.45508 z m -97.45703,0.80664 c 3.49866,0 4.75781,0.57644 4.75781,3.64844 0,3.072 -1.25915,3.66992 -4.75781,3.66992 -3.49866,0 -4.75781,-0.59792 -4.75781,-3.66992 0,-3.072 1.25915,-3.64844 4.75781,-3.64844 z m 20.00976,0 c 3.49867,0 4.75782,0.57644 4.75782,3.64844 0,3.072 -1.25915,3.66992 -4.75782,3.66992 -3.4985,0 -4.75585,-0.59792 -4.75585,-3.66992 0,-3.072 1.25735,-3.64844 4.75585,-3.64844 z m 146.64649,0 c 3.49866,0 4.75586,0.57644 4.75586,3.64844 0,3.072 -1.2572,3.66992 -4.75586,3.66992 -3.49866,0 -4.75781,-0.59792 -4.75781,-3.66992 0,-3.072 1.25915,-3.64844 4.75781,-3.64844 z m 20.00977,0 c 3.4985,0 4.75781,0.57644 4.75781,3.64844 0,3.072 -1.25931,3.66992 -4.75781,3.66992 -3.49867,0 -4.75782,-0.59792 -4.75782,-3.66992 0,-3.072 1.25915,-3.64844 4.75782,-3.64844 z m 32.76757,6.28906 v 4.50586 h 2.16602 c -0.96384,-1.48944 -1.66772,-3.01674 -2.16602,-4.50586 z m -209.91797,16.66602 c -6.05866,0 -9.10937,2.26071 -9.10937,7.35937 0,5.09867 3.05071,7.38282 9.10937,7.38282 6.05867,0 9.10743,-2.28415 9.10743,-7.38282 0,-5.09866 -3.04876,-7.35937 -9.10743,-7.35937 z m 98.08985,0 c -6.05866,0 -9.10938,2.26071 -9.10938,7.35937 0,4.54238 2.42782,6.84551 7.24024,7.29493 1.49388,-1.37305 2.84502,-2.647 3.95898,-3.75196 -0.58603,0.0895 -1.27099,0.12696 -2.08984,0.12696 -3.49867,0 -4.75781,-0.59793 -4.75781,-3.66993 0,-3.07199 1.25914,-3.64648 4.75781,-3.64648 3.49866,0 4.75781,0.57449 4.75781,3.64648 0,0.36453 -0.0215,0.69031 -0.0586,0.98828 1.11298,-1.10564 2.30563,-2.29889 3.19922,-3.16601 0.28185,-0.27352 0.5143,-0.48658 0.77148,-0.73242 -1.03346,-3.05321 -3.92308,-4.44922 -8.66992,-4.44922 z m 40.02148,0 c -2.53034,0 -4.52795,0.4016 -6.00586,1.23242 0.79394,0.49727 1.59743,1.00473 2.08008,1.44336 0.58286,0.5297 0.77824,0.85844 1.18945,1.30273 0.70053,-0.19217 1.58754,-0.26562 2.73633,-0.26562 3.49867,0 4.75586,0.57449 4.75586,3.64648 0,2.60556 -0.92039,3.42468 -3.33008,3.61524 0.0327,0.11106 0.0864,0.26794 0.11914,0.37304 0.46277,1.48473 0.59677,2.25362 0.75782,3.11524 0.008,0.0455 0.009,0.0971 0.0176,0.14258 4.51301,-0.54961 6.78907,-2.84774 6.78907,-7.2461 0,-5.09866 -3.05072,-7.35937 -9.10938,-7.35937 z m 20.00977,0 c -6.05866,0 -9.10938,2.26071 -9.10938,7.35937 0,5.09867 3.05072,7.38282 9.10938,7.38282 6.05866,0 9.10937,-2.28415 9.10937,-7.38282 0,-5.09866 -3.05071,-7.35937 -9.10937,-7.35937 z m 29.52539,0 c -6.05866,0 -9.10938,2.26071 -9.10938,7.35937 0,5.09867 3.05072,7.38282 9.10938,7.38282 6.05866,0 9.10937,-2.28415 9.10937,-7.38282 0,-5.09866 -3.05071,-7.35937 -9.10937,-7.35937 z m 20.01172,0 c -6.05866,0 -9.10938,2.26071 -9.10938,7.35937 0,1.91879 0.43114,3.43831 1.29297,4.58789 0.97039,-0.83916 1.87768,-1.5285 2.86914,-2.4082 a 18.899528,18.899528 0 0 1 0.082,-0.0723 c 0.0905,-0.0793 0.26103,-0.16781 0.35743,-0.24805 -0.17057,-0.4866 -0.25,-1.09587 -0.25,-1.85938 0,-3.07199 1.25914,-3.64648 4.75781,-3.64648 1.73514,0 2.91502,0.14455 3.66797,0.66211 1.38097,-0.64573 2.70564,-1.1724 4.0664,-1.68946 -1.44369,-1.83115 -4.02124,-2.68554 -7.73437,-2.68554 z m -189.375,0.0762 c -4.90606,0.4139 -7.38284,2.69671 -7.38281,7.2832 0,1.36674 0.22647,2.52573 0.66406,3.49805 1.95891,-3.51448 4.33024,-7.14455 6.71875,-10.78125 z m -34.88086,0.1582 -1.66602,2.31836 c 0.25718,0.46876 0.53043,0.9286 0.79297,1.39453 h 1.6836 v 2.96094 c 1.40015,2.35095 2.87835,4.64931 4.41601,6.91992 v -13.59375 z m 82.59961,0 c -1.04713,1.23536 -2.17247,2.50699 -3.16602,3.71289 h 0.4375 v 10.5586 h 4.41602 v -14.27149 z m 5.97656,0 -2.66797,3.71289 h 3.47852 v 10.5586 h 4.41601 v -14.27149 z m 9.51367,0 -2.66601,3.71289 h 3.47656 v 10.5586 h 4.41601 v -14.27149 z m 89.55664,0 -2.66601,3.71289 h 3.47656 v 10.5586 h 4.41602 v -14.27149 z m -171.04883,3.47852 c 3.49867,0 4.75586,0.57449 4.75586,3.64648 0,3.072 -1.25719,3.66991 -4.75586,3.66993 -3.49866,0 -4.75781,-0.59793 -4.75781,-3.66993 0,-3.07199 1.25915,-3.64648 4.75781,-3.64648 z m 158.1211,0 c 3.49866,0 4.75781,0.57449 4.75781,3.64648 0,3.072 -1.25915,3.66991 -4.75781,3.66993 -3.49867,0 -4.75781,-0.59793 -4.75781,-3.66993 0,-3.07199 1.25914,-3.64648 4.75781,-3.64648 z m 29.52539,0 c 3.49866,0 4.75781,0.57449 4.75781,3.64648 0,3.072 -1.25915,3.66991 -4.75781,3.66993 -3.49867,0 -4.75781,-0.59793 -4.75781,-3.66993 0,-3.07199 1.25914,-3.64648 4.75781,-3.64648 z m -129.4707,6.15625 c -1.20027,1.53664 -2.55278,3.16295 -3.65039,4.63672 h 3.65039 z m 1.85546,16.79687 c -6.05866,0 -9.10937,2.26267 -9.10937,7.36133 0,5.09866 3.05071,7.38086 9.10937,7.38086 2.04147,0 3.73304,-0.26596 5.08985,-0.80469 0.97039,-0.81462 1.93286,-1.65383 3.11914,-2.59179 0.59972,-1.06196 0.90039,-2.3841 0.90039,-3.98438 0,-5.09866 -3.05071,-7.36133 -9.10938,-7.36133 z m 20.00977,0 c -6.05866,0 -9.10937,2.26267 -9.10938,7.36133 0,0.59749 0.0471,1.15282 0.13086,1.67383 1.61846,-1.26657 2.9655,-2.4263 4.53516,-3.68359 0.30097,-0.71932 0.85061,-1.13028 1.67774,-1.36328 1.632,-1.31845 3.23826,-2.60856 4.78515,-3.88868 -0.63222,-0.0642 -1.30313,-0.0996 -2.01953,-0.0996 z m 87.5957,0 c -6.05866,0 -9.10937,2.26267 -9.10937,7.36133 0,2.13851 0.54309,3.7758 1.61328,4.96289 1.27656,-0.66353 2.54825,-1.33324 3.77734,-2 -0.7307,-0.53633 -1.03906,-1.44716 -1.03906,-2.96289 0,-3.072 1.25915,-3.64844 4.75781,-3.64844 2.67962,0 4.03675,0.34836 4.5293,1.88672 1.22923,-0.74209 2.4486,-1.50255 3.64844,-2.26562 -1.32195,-2.28106 -4.0503,-3.33399 -8.17774,-3.33399 z m -121.52148,0.23438 c -0.80077,1.3099 -1.42535,2.49322 -2.09961,3.71289 h 0.22851 v 10.56055 h 4.41602 v -14.27344 z m 104.92383,0 -2.66602,3.71289 h 3.47656 v 10.56055 h 4.16602 c 0.0885,-0.0441 0.16177,-0.0888 0.25,-0.13282 v -14.14062 z m -9.76953,0.0234 c -0.0329,1.26073 -0.088,2.51491 -0.20899,3.77539 1.28491,0.42541 1.80664,1.36443 1.80664,3.32812 0,2.47484 -0.83946,3.33194 -2.98633,3.57617 -0.31865,1.28285 -0.69847,2.54511 -1.13867,3.78907 5.63339,-0.15849 8.47852,-2.4494 8.47852,-7.36524 0,-4.11808 -1.99348,-6.38379 -5.95117,-7.10351 z m -138.3418,2.23242 c -0.40812,0.46997 -0.74102,1.00522 -0.98633,1.61719 0.0779,0.084 0.1426,0.17788 0.2207,0.26171 0.23301,-0.61374 0.52002,-1.25835 0.76563,-1.8789 z m 57.10351,1.22265 c 3.49867,0 4.75782,0.57644 4.75782,3.64844 0,3.072 -1.25915,3.66797 -4.75782,3.66797 -3.49866,0 -4.75781,-0.59597 -4.75781,-3.66797 0,-3.072 1.25915,-3.64844 4.75781,-3.64844 z m -148.09373,2.13672 c -0.037,0.25893 -0.042,0.54849 -0.061,0.82422 0.1192,-0.0845 0.2415,-0.16513 0.3672,-0.24023 -0.099,-0.1964 -0.2074,-0.3875 -0.3066,-0.58399 z m 130.51561,21.05274 -2.66797,3.71094 h 3.47852 v 10.56054 h 4.41601 v -14.27148 z m 9.51367,0 -2.66601,3.71094 h 3.47656 v 10.56054 h 4.41601 v -1.70898 c -0.93755,-1.93676 -1.6837,-3.90587 -1.89843,-5.70117 -0.36233,-3.02952 -0.14736,-5.11438 0.22265,-6.86133 z m -17.48633,0.50976 c -0.23181,1.51892 -0.37172,3.18204 -0.42773,4.84571 0.15248,0.47171 0.22851,1.04596 0.22851,1.76953 0,0.9974 -0.13464,1.73156 -0.43359,2.27148 -0.0329,0.4488 -0.0452,1.52946 -0.0801,1.64258 0.045,0.0491 0.10732,0.15428 0.19727,0.375 a 18.899528,18.899528 0 0 1 0.10937,0.27734 c 0.14472,0.37125 0.41043,0.95132 1.36133,1.62696 2.12343,-1.1561 3.19727,-3.17923 3.19727,-6.19336 0,-3.43779 -1.39167,-5.58069 -4.15235,-6.61524 z m 203.6543,0.81836 c -0.23626,0.0495 -0.46457,0.1223 -0.70117,0.16992 -0.63637,0.69873 -1.30062,1.36647 -1.94141,2.06055 0.17707,-0.0182 0.34408,-0.042 0.53906,-0.0527 0.69065,-0.73807 1.42468,-1.42579 2.10352,-2.17774 z m -326.01955,1.09375 -0.9238,1.28516 c -10e-5,10e-4 10e-5,0.003 0,0.004 h 0.2305 c 0.2965,-0.45224 0.5185,-0.88365 0.6933,-1.28907 z m 62.23439,0.46289 c 0.51587,0.55839 0.98686,1.15485 1.45118,1.75782 0.0396,-0.0551 0.0848,-0.10402 0.1289,-0.1543 -0.53217,-0.52994 -1.0709,-1.05466 -1.58008,-1.60352 z m 258.09571,3.91016 c -1.22522,1.28798 -2.45701,2.56626 -3.71094,3.82031 0.0286,0.0638 0.0594,0.12538 0.0898,0.1875 1.22466,-1.16387 2.41502,-2.36819 3.60742,-3.56836 -2.7e-4,-0.0396 -0.006,-0.069 -0.006,-0.10937 0,-0.12199 0.0155,-0.21584 0.0195,-0.33008 z m -26.42774,22.50391 c -1.1569,0.78633 -2.35494,1.50519 -3.52929,2.26367 0.003,0.006 0.007,0.01 0.01,0.0156 1.17274,-0.75955 2.36857,-1.48266 3.52344,-2.26953 -0.002,-0.003 -0.002,-0.007 -0.004,-0.01 z m -11.76953,7.31054 c -1.22161,0.69838 -2.46357,1.3581 -3.70117,2.02735 0.008,0.009 0.0156,0.0183 0.0234,0.0273 1.23776,-0.67157 2.4801,-1.33476 3.70117,-2.03516 -0.008,-0.007 -0.0159,-0.0127 -0.0234,-0.0195 z m -7.47656,4.09571 c -0.14407,0.0735 -0.28151,0.15933 -0.42578,0.23242 h 0.0937 c 0.11253,-0.0573 0.21963,-0.12415 0.33203,-0.18164 z m -31.5957,12.48632 c -0.10521,0.0103 -0.20962,0.0211 -0.3125,0.0332 -1.26133,0.36265 -2.49901,0.79166 -3.76954,1.12695 -0.062,0.0354 -0.1293,0.0665 -0.18945,0.10352 1.44098,-0.37764 2.8439,-0.85098 4.27149,-1.26368 z m -10.32032,2.58399 c -1.77815,0.40215 -3.5367,0.86836 -5.33007,1.21679 0.0332,0.007 0.0616,0.0163 0.0937,0.0234 1.77729,-0.34426 3.51581,-0.80059 5.2754,-1.19726 -0.0119,-0.0153 -0.027,-0.0278 -0.0391,-0.043 z m -11.96484,2.28125 c -1.58088,0.24649 -3.15141,0.53548 -4.74219,0.74023 -0.001,0.008 -0.003,0.0171 -0.004,0.0254 1.58542,-0.20157 3.14736,-0.48177 4.7207,-0.72461 0.009,-0.0136 0.0167,-0.0276 0.0254,-0.041 z m 151.97266,9.19726 -0.41993,0.35157 h 0.41993 z m -31.67383,25.85157 a 19.6308,18.195439 89.999998 0 1 -0.66602,0.35156 c 0.11904,0.0585 0.28702,0.0773 0.41211,0.13086 0.0811,-0.16264 0.16585,-0.32312 0.25391,-0.48242 z" />
      <path
         id="path108808"
         style="color:#000000;fill:#005858;fill-opacity:1;stroke:none;stroke-width:37.7953;stroke-linecap:round;stroke-linejoin:round;-inkscape-stroke:none;paint-order:stroke fill markers"
         transform="matrix(0.26458333,0,0,0.26458333,0.89865315,0.14004313)"
         d="M -827.19531,95.285156 A 197.99974,197.99974 0 0 0 -949.2168,137.42773 c 1.03941,-0.003 1.72179,-0.10984 2.78516,-0.10742 0.003,1e-5 0.004,-1e-5 0.008,0 19.51026,9.2e-4 32.98608,0.59189 48.17774,2.20117 l 0.63671,0.0606 4.09376,-1.85937 c 6.69079,-3.05011 17.42549,-7.46443 27.73242,-11.55274 10.31399,-4.09112 18.6128,-7.39616 24.63476,-9.16406 a 18.899527,18.899527 0 0 1 0.22852,-0.0644 c 3.45082,-0.96627 6.69669,-1.8788 10.2832,-2.54297 a 18.899527,18.899527 0 0 1 0.11914,-0.0215 c 3.88301,-0.69339 5.18851,-0.54088 7.7832,-0.60351 2.58093,-0.0623 5.4489,-0.0637 8.28321,0.006 1.99071,0.0402 3.94559,0.14976 5.88086,0.30468 -0.0227,-0.47814 -0.23047,-0.55257 -0.23047,-1.07421 0,-6.27796 3.40847,-11.32467 5.76758,-13.609379 1.43591,-1.390602 2.20556,-1.628608 3.17773,-2.183594 a 197.99974,197.99974 0 0 0 -27.33984,-1.931641 z m 107.31445,53.148434 c 4.75408,9.94101 6.50034,21.00387 6.48828,32.62696 a 160.30503,160.30503 0 0 1 8.89844,9.73633 c 0.0113,-1.43248 0.1628,-1.11158 0.17187,-2.99219 0,-6.81937 -0.0636,-10.53777 -0.17773,-12.16016 -0.11452,-1.62585 -0.0151,-0.99177 -0.54102,-2.86523 a 18.899527,18.899527 0 0 1 -0.0371,-0.13868 c -2.46713,-9.07677 -6.59804,-16.17488 -12.75977,-22.29492 -0.66108,-0.65458 -1.34459,-1.28879 -2.04297,-1.91211 z m -277.74609,44.19532 a 197.99974,197.99974 0 0 0 -27.56835,100.65625 197.99974,197.99974 0 0 0 197.99999,198 197.99974,197.99974 0 0 0 187.46875,-134.45313 c -15.57139,20.83798 -39.67368,35.92539 -65.14063,39.29688 A 160.30503,160.30503 0 0 1 -810.18359,452.25 c -15.37319,4.57844 -31.42134,8.55639 -47.8418,11.37305 a 18.899527,18.899527 0 0 1 -0.0527,0.01 c -7.03692,1.18647 -14.93535,1.64234 -22.60352,1.71094 -1.91701,0.0189 -3.71345,0.0486 -5.45313,0.0527 -5.21661,0.0113 -9.93457,-0.22339 -15.93945,-1.84375 -13.60902,-3.66538 -26.37115,-12.59565 -31.79492,-26.33007 -1.80166,-4.49201 -2.77149,-11.29145 -2.77148,-18.23633 a 18.899527,18.899527 0 0 1 0,-0.10547 c 0.0151,-2.66162 0.84361,-5.30933 1.13671,-7.9375 A 160.30503,160.30503 0 0 1 -987.5,293.28516 a 160.30503,160.30503 0 0 1 29.91602,-93.01758 c -6.06051,-1.43591 -10.49779,-2.93697 -17.62696,-4.26953 a 18.899527,18.899527 0 0 1 -0.0605,-0.0117 c -6.02786,-1.1469 -13.95691,-2.08066 -22.35547,-3.35742 z m 363.7539,46.99218 c 0.008,0.005 0.0958,0.0961 0.21875,0.22461 -0.0996,-0.0911 -0.23273,-0.23342 -0.21875,-0.22461 z m 0.75977,14.53321 c -1.62066,20.65449 -6.02442,42.91961 -13.82227,63.73632 0.70613,0.0944 1.60845,0.22788 3.24219,0.76563 1.67033,0.54981 4.83246,0.808 8.76563,5.96484 1.60505,1.83148 1.6511,3.23106 2.35156,4.84571 a 197.99974,197.99974 0 0 0 3.38086,-36.18164 197.99974,197.99974 0 0 0 -3.91797,-39.13086 z m -32.16211,92.96484 c 0.37417,0.56123 0.74031,1.06163 1.10156,1.53516 0.38782,0.4429 0.80558,0.88956 1.25977,1.34375 a 18.899527,18.899527 0 0 1 -2.36133,-2.87891 z" />
      <path
         id="path108802"
         style="color:#000000;fill:#0397b1;fill-opacity:1;stroke:none;stroke-width:37.7953;stroke-linecap:round;stroke-linejoin:round;-inkscape-stroke:none;paint-order:stroke fill markers"
         transform="matrix(0.26458333,0,0,0.26458333,0.89865315,0.14004313)"
         d="m -782.05664,112.63281 c -4.53553,-0.013 -7.8457,0.0996 -7.8457,0.37696 0,0.18493 1.04738,0.73821 2.34179,1.29296 16.76584,6.90358 33.84001,19.1707 43.64063,31.25196 10.78685,13.37567 13.68295,23.36007 11.95703,41.72851 -1.54095,16.58091 -5.11449,24.65583 -11.77149,26.44336 -12.01958,3.26687 -18.86269,-19.78504 -12.94531,-43.26953 0.61637,-2.28065 0.86377,-4.19141 0.61719,-4.19141 -1.23277,0 -10.78808,7.95169 -15.47266,12.88282 -12.82095,13.43731 -21.38769,29.1539 -26.07226,47.58398 -2.71212,10.54028 -3.51429,17.38346 -3.69922,30.57422 l -0.18359,12.45117 -9.49219,7.82813 c -47.52374,39.51064 -83.6441,79.20646 -96.89649,106.57422 -7.39668,15.1632 -9.80163,23.66754 -9.86328,34.82422 0,6.65696 0.18509,8.19848 1.41797,11.21874 2.8354,7.27344 9.55424,12.5127 19.16992,15.10157 6.16392,1.66424 25.33364,1.48073 35.93555,-0.30664 33.7782,-5.79406 66.81609,-16.02767 91.96484,-28.35547 19.84778,-9.80062 34.76412,-19.84677 51.71485,-34.88672 4.00656,-3.51341 4.13073,-3.5761 8.87695,-4.13086 18.79994,-2.09573 42.22257,-16.14807 54.24219,-32.48242 3.20523,-4.31474 5.30061,-8.07634 4.86914,-8.50781 -0.12321,-0.18494 -2.71213,10e-4 -5.73242,0.37109 -7.2118,0.80131 -20.58789,0.80131 -20.58789,0 0,-0.36983 1.23358,-3.08234 2.71289,-6.04102 13.25242,-26.56643 22.4989,-63.48762 22.56054,-89.86914 0,-10.66356 -0.49367,-10.17096 -4.37695,4.4375 -9.43075,35.68902 -18.92387,56.64685 -33.4707,74.15235 -4.25307,5.11604 -11.7114,12.38795 -15.10157,14.85351 -2.34225,1.60262 -2.34075,1.6025 1.78907,-4.62304 14.30026,-21.57368 26.68967,-52.08389 32.29883,-79.20508 3.14358,-15.40977 3.75976,-21.94412 3.75976,-39.75782 0,-17.19727 -0.61707,-23.79277 -3.26758,-34.82617 l -1.10937,-4.62304 -0.49219,3.08203 c -6.34881,42.22276 -9.18525,56.21627 -15.5957,75.75586 -8.01309,24.59398 -19.78612,45.30326 -35.93555,63.24023 -2.40393,2.65048 -2.40347,2.58977 3.39063,-9.86133 16.95072,-36.42869 27.42919,-66.9408 31.86718,-92.76758 1.17113,-6.78026 1.35633,-10.35399 1.41797,-23.11328 0,-13.80715 -0.12348,-15.53332 -1.41797,-20.15625 -3.26687,-12.01962 -9.1852,-22.31326 -17.6914,-30.75781 -13.00585,-12.88256 -30.94152,-20.64921 -54.30274,-23.36133 -4.69996,-0.53934 -15.66148,-0.90997 -23.2207,-0.93164 z m 148.18359,126.98828 c 0.008,0.005 0.0958,0.0961 0.21875,0.22461 -0.0996,-0.0911 -0.23273,-0.23342 -0.21875,-0.22461 z m -177.48047,135.10743 c 0.18482,-0.0616 0.61781,1.97171 0.80274,4.56054 0.98623,10.0472 -1.11076,17.0742 -6.10352,20.71094 -8.32127,6.04063 -36.67476,17.19778 -41.91406,16.39648 -0.80133,-0.12321 1.29343,-2.03489 6.7793,-6.3496 13.7455,-10.66356 26.19775,-21.26502 33.22461,-28.35352 3.75998,-3.75999 6.96436,-6.9032 7.21093,-6.96484 z" />
      <path
         id="path108796"
         style="color:#000000;fill:#0397b1;fill-opacity:1;stroke:none;stroke-width:37.7953;stroke-linecap:round;stroke-linejoin:round;-inkscape-stroke:none;paint-order:stroke fill markers"
         transform="matrix(0.26458333,0,0,0.26458333,0.89865315,0.14004313)"
         d="m -818.68164,132.625 c -3.77346,-0.003 -7.21731,0.12433 -8.51172,0.35547 -1.66428,0.30818 -5.54888,1.2933 -8.63086,2.15625 -6.71864,1.97245 -37.96891,14.36287 -49.86523,19.78711 l -8.69141,3.94531 -5.85547,-0.55469 c -14.54679,-1.54097 -27.0607,-2.0957 -46.23047,-2.0957 -27.12117,-0.0616 -44.68831,1.6026 -61.9473,5.73242 -7.335,1.7259 -19.168,5.67003 -20.1543,6.65625 -0.308,0.30818 2.589,0.86345 6.7188,1.29492 12.2661,1.29442 36.18089,4.86906 50.11132,7.51954 32.97691,6.1639 56.70744,13.86962 64.28906,20.89648 3.39016,3.08195 7.21181,10.23104 10.91016,20.33984 4.12985,11.27995 6.71963,22.4358 8.32226,35.31836 0.24643,1.60262 0.67815,2.7739 0.98633,2.52735 1.35606,-0.80131 4.56061,-8.44329 6.10156,-14.73047 2.95869,-11.71142 3.94532,-21.57505 3.94532,-38.83399 0,-14.60846 -0.55403,-21.01767 -2.46485,-27.73633 -0.30803,-1.1095 0.6777,-1.66414 8.50586,-4.74609 16.39597,-6.41046 27.61474,-9.80185 39.32617,-11.83594 13.43732,-2.34228 38.21518,-4.06836 57.81641,-4.06836 6.16392,0 11.21875,-0.184 11.21875,-0.49218 -0.0616,-1.35606 -12.26591,-9.67798 -19.41602,-13.19141 -11.77307,-5.79407 -20.21883,-7.95071 -32.66992,-8.19726 -1.2636,-0.0308 -2.55663,-0.0459 -3.81445,-0.0469 z" />
    </g>
    <g
       id="path21-1-4"
       transform="matrix(0.01630867,0,0,-0.01630867,-37.960644,136.99525)"
       style="fill:#ffffff;stroke:none" />
    <g
       id="path23-8-0"
       transform="matrix(0.01630867,0,0,-0.01630867,-37.960644,136.99525)"
       style="fill:#ffffff;stroke:none" />
  </g>
</svg>
