<?xml version="1.0" encoding="UTF-8" standalone="no"?>
<!-- Created with Inkscape (http://www.inkscape.org/) -->

<svg
   width="105.80854mm"
   height="115.92149mm"
   viewBox="0 0 105.80854 115.92148"
   version="1.1"
   id="svg5"
   inkscape:version="1.1.1 (3bf5ae0d25, 2021-09-20)"
   sodipodi:docname="sharkoder logo web.svg"
   xmlns:inkscape="http://www.inkscape.org/namespaces/inkscape"
   xmlns:sodipodi="http://sodipodi.sourceforge.net/DTD/sodipodi-0.dtd"
   xmlns="http://www.w3.org/2000/svg"
   xmlns:svg="http://www.w3.org/2000/svg">
  <sodipodi:namedview
     id="namedview7"
     pagecolor="#505050"
     bordercolor="#eeeeee"
     borderopacity="1"
     inkscape:pageshadow="0"
     inkscape:pageopacity="0"
     inkscape:pagecheckerboard="0"
     inkscape:document-units="mm"
     showgrid="false"
     fit-margin-top="0"
     fit-margin-left="0"
     fit-margin-right="0"
     fit-margin-bottom="0"
     inkscape:zoom="0.90509668"
     inkscape:cx="242.51553"
     inkscape:cy="273.45145"
     inkscape:window-width="1366"
     inkscape:window-height="745"
     inkscape:window-x="-8"
     inkscape:window-y="-8"
     inkscape:window-maximized="1"
     inkscape:current-layer="g116526" />
  <defs
     id="defs2" />
  <g
     inkscape:label="Layer 1"
     inkscape:groupmode="layer"
     id="layer1"
     transform="translate(-0.89865315,-0.14004313)">
    <path
       id="path192-9-2"
       style="fill:none;fill-opacity:0.967872;stroke:none;stroke-width:1.44357"
       transform="matrix(0.26458333,0,0,0.26458333,0.89865315,0.14004313)"
       d="M 79.625,-29.695312 A 269.8182,269.8182 0 0 0 -190.19336,240.12305 269.8182,269.8182 0 0 0 79.625,509.94141 269.8182,269.8182 0 0 0 349.44336,240.12305 269.8182,269.8182 0 0 0 79.625,-29.695312 Z m 0,51.367187 A 218.45087,218.45087 0 0 1 298.07617,240.12305 218.45087,218.45087 0 0 1 79.625,458.57227 218.45087,218.45087 0 0 1 -138.82422,240.12305 218.45087,218.45087 0 0 1 79.625,21.671875 Z" />
    <g
       id="g116526"
       transform="matrix(0.96498714,0,0,0.96498714,264.23402,-21.778005)"
       style="fill:#000000;fill-opacity:1">
      <path
         id="text80359"
         style="font-size:5.64444px;line-height:1.25;font-family:Ethnocentric;-inkscape-font-specification:Ethnocentric;fill:#219c2c;fill-opacity:1;stroke:#000000;stroke-width:4.1;stroke-linecap:round;stroke-miterlimit:4;stroke-dasharray:none;stroke-opacity:1;paint-order:markers stroke fill"
         transform="matrix(0.27418327,0,0,0.27418327,-272.89003,22.713306)"
         d="m 129.26758,33.75 -0.38867,0.175781 c -0.004,0.0039 -0.006,0.0101 -0.01,0.01367 0.12488,-0.05462 0.32587,-0.129222 0.44141,-0.181641 z m 101.59375,51.986328 c -2.45967,0.13256 -4.73926,0.31765 -7.13477,0.482422 l -0.48242,0.671875 h 3.35547 v 9.259766 c 1.34738,-2.112164 2.77907,-4.173165 4.26172,-6.201172 z m -9.57617,0.648438 c -1.95717,0.144844 -4.07832,0.238687 -5.92578,0.40039 1.85055,0.277019 2.57421,1.129757 2.57421,3.400391 0,2.96444 -1.21563,3.541018 -4.59179,3.541015 -3.37617,0 -4.5918,-0.576575 -4.5918,-3.541015 0,-1.392245 0.2743,-2.249841 0.9082,-2.771485 -1.78655,0.190952 -3.31788,0.386614 -4.86523,0.587891 -0.15627,0.658932 -0.24219,1.381554 -0.24219,2.183594 0,4.920141 2.94448,7.121094 8.79102,7.121094 5.84653,0 8.79101,-2.200953 8.79101,-7.121094 0,-1.524101 -0.28392,-2.785615 -0.84765,-3.800781 z m -96.58789,1.873046 c 0.61373,0.319546 1.19829,0.695981 1.79882,1.039063 -0.0243,-0.303768 -0.0631,-0.594855 -0.11328,-0.875 -0.56024,-0.05462 -1.12709,-0.109782 -1.68554,-0.164063 z m 77.9414,0.0039 c -1.06612,0.153027 -2.74831,0.285869 -3.64062,0.441406 a 18.237801,18.237801 0 0 1 -0.0117,0.002 c -0.1698,0.02953 -0.34025,0.07148 -0.50977,0.101563 0.0879,0.393637 0.14649,0.834045 0.14649,1.378906 0,2.96444 -1.21564,3.541015 -4.5918,3.541015 -3.12072,0 -4.37784,-0.517873 -4.55273,-2.933593 -1.34867,0.344741 -2.68703,0.669601 -4.10352,1.080078 0.63333,3.738013 3.52721,5.433594 8.65625,5.433594 5.84653,0 8.79102,-2.200953 8.79102,-7.121094 0,-0.697512 -0.0654,-1.332837 -0.1836,-1.921875 z m -74.25976,0.359375 c -0.0758,0.488602 -0.1211,1.00616 -0.1211,1.564453 0,0.0468 0.005,0.08843 0.006,0.134765 1.47529,0.925693 2.92397,1.921751 4.33985,3.052735 -0.13192,-0.550525 -0.27621,-1.091681 -0.4336,-1.644531 a 18.237801,18.237801 0 0 1 -0.0273,-0.109375 c -0.18747,-0.674218 -0.31499,-1.603395 -0.37305,-2.677735 z m 54.85156,3.925781 c -3.78632,1.15564 -7.86376,2.527152 -12.5625,4.275391 1.14606,0.323569 2.49435,0.484375 4.05469,0.484375 4.80886,0 7.64937,-1.492928 8.50781,-4.759766 z m 2.56641,16.269535 c -5.84653,0 -8.79102,2.18142 -8.79102,7.10156 0,4.92015 2.94449,7.12305 8.79102,7.12305 5.84636,0 8.79101,-2.2029 8.79101,-7.12305 0,-4.92014 -2.94465,-7.10156 -8.79101,-7.10156 z m 28.49218,0 c -5.84653,0 -8.79101,2.18142 -8.79101,7.10156 0,4.79888 2.80823,7.00707 8.37109,7.11328 0.40021,-1.20055 0.78413,-2.41068 1.21875,-3.59375 -0.25798,0.01 -0.50975,0.0215 -0.79883,0.0215 -3.37616,0 -4.59179,-0.57657 -4.59179,-3.54101 0,-2.96443 1.21563,-3.51953 4.59179,-3.51953 1.57498,0 2.66423,0.13444 3.39453,0.56445 0.49146,-1.13451 1.02807,-2.24493 1.55274,-3.36133 -1.31512,-0.52639 -2.95938,-0.78515 -4.94727,-0.78515 z m -16.01758,0.22461 -2.57226,3.58398 h 3.35547 v 10.18945 h 4.25976 v -13.77343 z m -28.00195,0.18164 c 0.0155,1.35313 0.0481,2.58733 0.0488,4.05468 0.52937,0.53103 0.75977,1.36035 0.75976,2.64063 0,1.35196 -0.25861,2.20394 -0.85351,2.73437 -0.0211,1.34677 -0.0355,2.72151 -0.0742,4.00586 3.40845,-0.81895 5.12695,-2.98665 5.12695,-6.74023 0,-3.71032 -1.67725,-5.8607 -5.00781,-6.69531 z m 15.52735,3.17578 c 3.376,0 4.59179,0.5551 4.59179,3.51953 0,2.96444 -1.21579,3.541 -4.59179,3.54101 -3.37617,0 -4.58985,-0.57657 -4.58985,-3.54101 0,-2.96443 1.21368,-3.51953 4.58985,-3.51953 z m -93.591802,2.63086 a 18.237801,18.237801 0 0 1 -1.36914,3.10742 c 0.813544,3.36414 3.662143,4.9043 8.539062,4.9043 3.45866,0 5.89417,-0.77944 7.3125,-2.42774 -1.15901,-0.57638 -2.16095,-1.03774 -3.83789,-1.76758 -0.72894,0.47139 -1.84631,0.61328 -3.47461,0.61328 -3.376162,0 -4.589844,-0.57657 -4.589844,-3.54101 0,-0.0411 0.0049,-0.0711 0.0059,-0.11133 -0.84171,-0.25813 -1.735707,-0.51857 -2.585938,-0.77734 z m 215.621092,0.71093 c -0.57582,2.20255 -1.28062,4.35905 -2.11523,6.48829 2.31448,-0.95217 3.57323,-2.76669 3.75976,-5.56055 a 18.237801,18.237801 0 0 1 -1.64453,-0.92774 z m 3.56836,2.01172 c 0.5258,2.79339 2.35254,4.41459 5.4668,5.01563 0.21506,-1.08482 0.47927,-2.21659 0.66992,-3.27735 a 18.237801,18.237801 0 0 1 -6.13672,-1.73828 z M 88.300781,134.54883 c -5.846529,0 -8.791015,2.18337 -8.791015,7.10351 0,4.92015 2.944486,7.1211 8.791015,7.1211 5.846529,0 8.791016,-2.20095 8.791016,-7.1211 0,-4.92014 -2.944487,-7.10351 -8.791016,-7.10351 z m 94.656249,0 c -5.84653,0 -8.79101,2.18337 -8.79101,7.10351 0,4.92015 2.94448,7.1211 8.79101,7.1211 5.84654,0 8.78906,-2.20095 8.78906,-7.1211 0,-4.92014 -2.94252,-7.10351 -8.78906,-7.10351 z m 19.30859,0 c -5.84635,0 -8.791,2.18337 -8.79101,7.10351 0,4.92015 2.94466,7.1211 8.79101,7.1211 2.52838,0 4.51184,-0.41376 5.95118,-1.2793 0.42234,-3.36153 1.0329,-6.6744 1.75,-10.02539 -1.33699,-1.99362 -3.90363,-2.91992 -7.70118,-2.91992 z m 56.98243,0 c -5.84653,0 -8.78907,2.18337 -8.78907,7.10351 0,4.92015 2.94254,7.1211 8.78907,7.1211 5.84653,0 8.79101,-2.20095 8.79101,-7.1211 0,-0.70846 -0.0675,-1.35458 -0.18945,-1.95117 -2.68754,-1.17342 -5.12196,-2.65975 -7.00391,-4.39844 -0.25799,-0.23834 -0.4613,-0.49113 -0.70703,-0.73242 -0.28992,-0.0121 -0.58482,-0.0215 -0.89062,-0.0215 z m 38.62109,0 c -0.12657,0 -0.24335,0.008 -0.36719,0.01 -2.41927,2.31421 -5.23262,4.2878 -8.32422,5.66993 -0.062,0.44792 -0.0996,0.91881 -0.0996,1.42382 0,4.92015 2.94448,7.1211 8.79102,7.1211 5.84653,0 8.79102,-2.20095 8.79102,-7.1211 0,-4.92014 -2.94449,-7.10351 -8.79102,-7.10351 z m -197.09375,0.22656 -2.574218,3.58203 h 3.357418 v 10.19141 h 4.26172 v -13.77344 z m 9.18164,0 -2.57226,3.58203 h 3.35351 v 10.19141 H 115 v -13.77344 z m 200.38672,0 -2.57227,3.58203 h 3.35547 v 7.05469 c 1.11103,-3.65824 2.09281,-7.19256 2.98438,-10.63672 z m -140.96094,0.92969 c -0.43525,4.38876 -1.09474,8.54616 -1.89843,12.64844 3.29544,-0.84984 4.95117,-3.01042 4.95117,-6.70118 0,-2.89338 -1.02501,-4.83456 -3.05274,-5.94726 z m 78.24414,1.74804 c -0.34673,1.17831 -0.76284,2.28855 -1.07226,3.50586 a 18.237801,18.237801 0 0 1 -0.0156,0.0508 c -0.68052,2.64476 -1.17037,4.84237 -1.57422,6.9414 2.5009,-1.03835 3.76563,-3.08481 3.76563,-6.29883 0,-1.73352 -0.37442,-3.12115 -1.10352,-4.19922 z m -159.326169,0.67774 c 3.376162,0 4.589844,0.55704 4.589844,3.52148 0,2.96444 -1.213682,3.53907 -4.589844,3.53907 -3.376162,0 -4.591797,-0.57463 -4.591797,-3.53907 0,-2.96444 1.215635,-3.52148 4.591797,-3.52148 z m 94.656249,0 c 3.37617,0 4.58984,0.55704 4.58985,3.52148 0,2.96444 -1.21368,3.53907 -4.58985,3.53907 -3.37616,0 -4.5918,-0.57463 -4.5918,-3.53907 0,-2.96444 1.21564,-3.52148 4.5918,-3.52148 z m 19.30859,0 c 3.37617,0 4.5918,0.55704 4.5918,3.52148 0,2.96444 -1.21563,3.53907 -4.5918,3.53907 -3.37599,0 -4.58984,-0.57463 -4.58984,-3.53907 0,-2.96444 1.21385,-3.52148 4.58984,-3.52148 z m 56.98243,0 c 3.37617,0 4.59179,0.55704 4.59179,3.52148 0,2.96444 -1.21562,3.53907 -4.59179,3.53907 -3.37616,0 -4.58985,-0.57463 -4.58985,-3.53907 0,-2.96444 1.21369,-3.52148 4.58985,-3.52148 z m 38.62109,0 c 3.37616,0 4.5918,0.55704 4.5918,3.52148 0,2.96444 -1.21564,3.53907 -4.5918,3.53907 -3.37617,0 -4.5918,-0.57463 -4.5918,-3.53907 0,-2.96444 1.21563,-3.52148 4.5918,-3.52148 z m -28.03125,2.35937 c -0.0404,0.37041 -0.0684,0.75444 -0.0684,1.16211 0,4.92015 2.94449,7.1211 8.79102,7.1211 5.84653,0 8.78903,-2.20095 8.78906,-7.1211 0,-0.25095 -0.0139,-0.49172 -0.0293,-0.72851 -0.56505,0.20007 -1.11576,0.43878 -1.69726,0.5957 -0.81136,0.21936 -1.65129,0.34288 -2.49219,0.46485 -0.0984,2.65365 -1.33454,3.20703 -4.57031,3.20703 -3.37616,0 -4.5918,-0.57463 -4.5918,-3.53907 0,-0.007 0.002,-0.0126 0.002,-0.0195 -1.41251,-0.29002 -2.79465,-0.66723 -4.13281,-1.14258 z m -192.509765,1.52149 c -1.034495,2.16101 -2.056569,4.32773 -2.974609,6.53711 h 2.974609 z m 1.791016,18.27148 c -5.846539,0 -8.791016,2.18141 -8.791016,7.10157 0,4.92014 2.944477,7.12109 8.791016,7.12109 5.846529,0 8.789062,-2.20095 8.789062,-7.12109 0,-4.92016 -2.942533,-7.10157 -8.789062,-7.10157 z m 19.310547,0 c -5.846529,0 -8.791016,2.18141 -8.791016,7.10157 0,4.92014 2.944487,7.12109 8.791016,7.12109 5.846542,0 8.789062,-2.20095 8.789062,-7.12109 0,-4.92016 -2.94252,-7.10157 -8.789062,-7.10157 z m 67.109372,0 c -0.34139,0 -0.66864,0.007 -0.99023,0.0215 -0.40838,1.28478 -0.84684,2.51121 -1.30078,3.73047 0.6196,-0.12125 1.36699,-0.17188 2.29101,-0.17188 3.37616,0 4.5918,0.55705 4.5918,3.52149 0,2.96444 -1.21564,3.54101 -4.5918,3.54101 -2.59765,0 -3.90527,-0.35566 -4.375,-1.86328 -0.49069,1.08321 -0.93548,2.1573 -1.5664,3.29297 -0.13056,0.23499 -0.17025,0.48132 -0.24024,0.71875 1.4553,0.96762 3.51191,1.43164 6.18164,1.43164 5.84653,0 8.79102,-2.20095 8.79102,-7.12109 0,-4.92016 -2.94449,-7.10157 -8.79102,-7.10157 z m 37.67383,0 c -5.84653,0 -8.78906,2.18141 -8.78906,7.10157 0,4.24141 2.19205,6.45985 6.54101,6.99218 1.13824,-0.95617 2.19785,-1.90377 3.34961,-2.86133 a 18.237801,18.237801 0 0 1 0.0566,-0.0469 l 0.80079,-0.66016 c -0.55398,0.0802 -1.19415,0.11719 -1.95899,0.11719 -3.37616,0 -4.58984,-0.57657 -4.58984,-3.54101 0,-2.96444 1.21368,-3.52149 4.58984,-3.52149 1.97923,0 3.21025,0.19585 3.89453,0.95117 0.0251,-1.43002 0.093,-2.71288 0.14063,-4.05664 -1.14224,-0.31802 -2.48295,-0.47461 -4.03516,-0.47461 z m 57.92969,0 c -5.84653,0 -8.79102,2.18141 -8.79102,7.10157 0,4.92014 2.94449,7.12109 8.79102,7.12109 5.84653,0 8.79101,-2.20095 8.79101,-7.12109 0,-4.92016 -2.94448,-7.10157 -8.79101,-7.10157 z m 28.49219,0 c -5.84653,0 -8.79102,2.18141 -8.79102,7.10157 0,4.92014 2.94449,7.12109 8.79102,7.12109 5.84652,0 8.79101,-2.20095 8.79101,-7.12109 0,-4.92016 -2.94449,-7.10157 -8.79101,-7.10157 z m -45.9336,0.0879 c -0.0392,1.09853 -0.07,2.31679 -0.0957,3.58594 2.0247,0.24024 2.81836,1.06391 2.81836,3.42774 0,2.41253 -0.82795,3.23126 -2.94727,3.45703 l -0.0547,3.59961 c 4.78471,-0.38531 7.20312,-2.60707 7.20312,-7.05664 0,-4.36338 -2.32198,-6.56938 -6.92383,-7.01368 z m -132.79687,0.13672 -2.57422,3.58203 h 3.35742 v 10.19141 h 4.25977 v -13.77344 z m 67.10937,0 -2.57226,3.58203 h 3.35742 v 10.19141 h 4.26172 v -13.77344 z m 9.1836,0 -2.57227,3.58203 h 3.35352 v 10.19141 h 4.26171 v -13.77344 z m 86.41992,0 -2.57227,3.58203 h 3.35547 v 10.19141 h 4.26172 v -13.77344 z m 28.49219,0 -2.57227,3.58203 h 3.35547 v 5.15821 c 1.14241,-2.98016 2.19507,-5.87649 3.2168,-8.74024 z m -179.38477,0.29883 c -3.05216,0.90739 -4.5957,3.02666 -4.5957,6.57813 0,4.77704 2.78436,6.98649 8.29687,7.11132 -0.96113,-1.5028 -1.23453,-2.48408 -1.55664,-3.32421 -0.0606,-0.15798 -0.0701,-0.24274 -0.125,-0.39258 -1.73788,-0.30721 -2.41406,-1.18714 -2.41406,-3.39453 0,-1.42551 0.28416,-2.29098 0.95117,-2.8086 -0.16553,-1.30564 -0.37002,-2.51644 -0.55664,-3.76953 z m -43.605469,3.05664 c 3.376161,0 4.589843,0.55705 4.589843,3.52149 0,2.96444 -1.213682,3.54101 -4.589843,3.54101 -3.376172,0 -4.591797,-0.57657 -4.591797,-3.54101 0,-2.96444 1.215625,-3.52149 4.591797,-3.52149 z m 19.310547,0 c 3.376172,0 4.589842,0.55705 4.589842,3.52149 0,2.96444 -1.21367,3.54101 -4.589842,3.54101 -3.376162,0 -4.591797,-0.57657 -4.591797,-3.54101 0,-2.96444 1.215635,-3.52149 4.591797,-3.52149 z m 162.712892,0 c 3.37617,0 4.59179,0.55705 4.5918,3.52149 0,2.96444 -1.21563,3.54101 -4.5918,3.54101 -3.37616,0 -4.5918,-0.57657 -4.5918,-3.54101 0,-2.96444 1.21564,-3.52149 4.5918,-3.52149 z m 28.49219,0 c 3.37617,0 4.59176,0.55705 4.59179,3.52149 0,2.96444 -1.21562,3.54101 -4.59179,3.54101 -3.37617,0 -4.5918,-0.57657 -4.5918,-3.54101 0,-2.96444 1.21563,-3.52149 4.5918,-3.52149 z m -221.490239,3.45117 c -0.585583,2.30474 -1.072265,4.63198 -1.537109,6.9668 h 1.537109 z m 47.699219,18.70117 c -5.84653,0 -8.78906,2.18143 -8.78906,7.10157 0,4.92015 2.94253,7.12304 8.78906,7.12304 5.84653,0 8.79102,-2.20289 8.79102,-7.12304 0,-4.92014 -2.94449,-7.10156 -8.79102,-7.10157 z m 37.67383,0 c -5.84653,0 -8.78906,2.18143 -8.78906,7.10157 0,4.92015 2.94253,7.12304 8.78906,7.12304 5.84653,0 8.78906,-2.20289 8.78906,-7.12304 0,-4.92014 -2.94253,-7.10156 -8.78906,-7.10157 z m 103.83789,0 c -5.84653,0 -8.79102,2.18143 -8.79102,7.10157 0,4.92015 2.94449,7.12304 8.79102,7.12304 5.84653,0 8.78906,-2.20289 8.78906,-7.12304 0,-4.92014 -2.94253,-7.10156 -8.78906,-7.10157 z m 19.31055,0 c -5.84653,0 -8.79102,2.18143 -8.79102,7.10157 0,4.92015 2.94449,7.12304 8.79102,7.12304 5.84652,0 8.79101,-2.20289 8.79101,-7.12304 0,-4.92014 -2.94449,-7.10156 -8.79101,-7.10157 z m -204.380864,0.22461 -2.576172,3.58399 h 3.357422 v 10.18945 h 4.261719 v -13.77344 z m 9.179688,0 -2.572266,3.58399 h 3.355469 v 10.18945 h 4.259765 v -13.77344 z m 9.18164,0 -2.574218,3.58399 h 3.357422 v 10.18945 h 4.261718 v -13.77344 z m 9.181641,0 -2.572266,3.58399 h 3.353521 v 10.18945 h 4.26171 v -13.77344 z m 28.492185,0 -2.57422,3.58399 h 3.35547 v 10.18945 h 4.26172 v -13.77344 z m 9.18164,0 -2.57422,3.58399 h 3.35743 v 10.18945 h 4.25976 v -13.77344 z m 28.49219,0 -2.57422,3.58399 h 3.35547 v 10.18945 h 4.26172 v -13.77344 z m 9.17969,0 -2.57227,3.58399 h 3.35547 v 6.49805 c 1.39846,-1.28363 2.83423,-2.57307 4.26172,-3.86133 v -6.22071 z m 9.18359,0 -2.57617,3.58399 h 1.34766 c 1.34252,-1.19805 2.58854,-2.38246 3.95507,-3.58399 z m 56.98047,0 -2.57227,3.58399 h 3.35743 v 10.18945 h 4.25976 v -13.77344 z m 47.80273,0 -2.57226,3.58399 h 3.35547 v 9.95898 c 1.53282,-3.34515 2.85185,-6.48886 4.25976,-9.71484 v -3.82813 z m -224.437495,0.53711 c -0.171092,1.64189 -0.34543,3.28125 -0.457031,4.93164 0.09283,0.40034 0.152344,0.84878 0.152344,1.40821 0,0.79999 -0.09162,1.42043 -0.28711,1.9082 -0.06794,1.56973 -0.177723,3.13584 -0.191406,4.71094 3.108802,-0.89898 4.679687,-3.03478 4.679687,-6.61914 0,-3.26951 -1.308678,-5.32532 -3.896484,-6.33985 z m 51.140625,2.82032 c 3.37616,0 4.5918,0.5551 4.5918,3.51953 0,2.96444 -1.21564,3.54099 -4.5918,3.54101 -3.37616,0 -4.58984,-0.57657 -4.58984,-3.54101 0,-2.96443 1.21368,-3.51953 4.58984,-3.51953 z m 37.67383,0 c 3.37617,0 4.58984,0.5551 4.58984,3.51953 0,2.96444 -1.21367,3.54099 -4.58984,3.54101 -3.37616,0 -4.58985,-0.57657 -4.58985,-3.54101 0,-2.96443 1.21369,-3.51953 4.58985,-3.51953 z m 103.83789,0 c 3.37616,0 4.58984,0.5551 4.58984,3.51953 0,2.96444 -1.21368,3.54099 -4.58984,3.54101 -3.37616,0 -4.58985,-0.57657 -4.58985,-3.54101 0,-2.96443 1.21369,-3.51953 4.58985,-3.51953 z m 19.31055,0 c 3.37616,0 4.59179,0.5551 4.59179,3.51953 0,2.96444 -1.21563,3.54099 -4.59179,3.54101 -3.37617,0 -4.5918,-0.57657 -4.5918,-3.54101 0,-2.96443 1.21563,-3.51953 4.5918,-3.51953 z m -39.46485,1.85742 a 18.237801,18.237801 0 0 1 -0.46679,0.5957 l -3.79493,3.12891 v 4.83398 h 4.26172 z M 79.119141,211.74805 c -5.846539,0 -8.791016,2.18337 -8.791016,7.10351 0,4.92014 2.944477,7.1211 8.791016,7.1211 5.846529,0 8.789062,-2.20096 8.789062,-7.1211 0,-4.92014 -2.942533,-7.10351 -8.789062,-7.10351 z m 28.490239,0 c -5.84654,0 -8.789068,2.18337 -8.789068,7.10351 0,4.92014 2.942528,7.1211 8.789068,7.1211 5.84635,0 8.79101,-2.20096 8.79101,-7.1211 0,-4.92014 -2.94466,-7.10351 -8.79101,-7.10351 z m 19.31054,0 c -5.84653,0 -8.79101,2.18337 -8.79101,7.10351 0,4.92014 2.94448,7.1211 8.79101,7.1211 5.84653,0 8.78906,-2.20096 8.78906,-7.1211 0,-4.92014 -2.94253,-7.10351 -8.78906,-7.10351 z m 19.31055,0 c -5.84653,0 -8.79102,2.18337 -8.79102,7.10351 0,4.834 2.8479,7.03734 8.49219,7.11328 2.85339,-3.07068 5.78809,-6.15758 8.85156,-9.27343 -0.79483,-3.3995 -3.64811,-4.94336 -8.55273,-4.94336 z m 85.47461,0 c -5.84653,0 -8.79102,2.18337 -8.79102,7.10351 0,4.92014 2.94449,7.1211 8.79102,7.1211 5.84653,0 8.79101,-2.20096 8.79101,-7.1211 0,-4.92014 -2.94448,-7.10351 -8.79101,-7.10351 z m 46.85547,0 c -5.84653,0 -8.791,2.18337 -8.79102,7.10351 0,4.92014 2.94449,7.1211 8.79102,7.1211 1.51228,0 2.8241,-0.14947 3.94726,-0.45313 -0.0675,-0.31976 -0.16214,-0.68024 -0.20898,-0.96094 -0.2045,-1.22537 -0.20814,-1.86473 -0.30078,-2.76367 -0.72972,0.45546 -1.83209,0.5957 -3.4375,0.5957 -3.37616,0 -4.5918,-0.57462 -4.5918,-3.53906 0,-2.96444 1.21564,-3.52148 4.5918,-3.52148 1.88186,0 3.08831,0.17361 3.79101,0.83984 0.32491,-0.44847 0.66923,-0.68743 0.80469,-1.08398 0.31681,-0.92736 0.62825,-1.54643 0.92578,-2.29688 -1.39658,-0.70207 -3.23289,-1.04101 -5.52148,-1.04101 z m -186.9668,0.22656 -2.572266,3.58203 H 92.375 v 10.18945 h 4.261719 v -13.77148 z m 67.11133,0 -1.81641,2.5293 c 0.83186,-0.83568 1.76317,-1.69076 2.60938,-2.5293 z m 56.98437,0 -2.57422,3.58203 h 3.35547 v 10.18945 h 4.26172 v -13.77148 z m 28.49024,0 -2.57227,3.58203 h 3.35547 v 10.18945 h 4.26172 v -13.77148 z m 9.18164,0 -2.57227,3.58203 h 3.35352 v 10.18945 h 4.26172 v -13.77148 z m 9.18164,0 -2.57227,3.58203 h 3.35547 v 10.18945 h 4.25977 v -13.77148 z m -198.062501,0.44727 c 0.364948,4.0447 0.9293,8.05077 1.648437,12.02148 1.638992,-1.15823 2.470694,-2.99105 2.470703,-5.5918 0,-3.36491 -1.37848,-5.4484 -4.11914,-6.42968 z m 147.068361,0.97656 c -1.47477,1.31294 -2.81648,2.60636 -4.25977,3.91601 v 8.43164 h 4.25977 z m -132.429689,1.93164 c 3.376161,0 4.589843,0.55704 4.589843,3.52148 0,2.96444 -1.213682,3.53907 -4.589843,3.53906 -3.376172,0 -4.591797,-0.57462 -4.591797,-3.53906 0,-2.96444 1.215625,-3.52148 4.591797,-3.52148 z m 28.490239,0 c 3.37599,0 4.59179,0.55704 4.59179,3.52148 0,2.96444 -1.2158,3.53907 -4.59179,3.53906 -3.37618,0 -4.58985,-0.57462 -4.58985,-3.53906 0,-2.96444 1.21367,-3.52148 4.58985,-3.52148 z m 19.31054,0 c 3.37617,0 4.58985,0.55704 4.58985,3.52148 0,2.96444 -1.21368,3.53907 -4.58985,3.53906 -3.37616,0 -4.58984,-0.57462 -4.58984,-3.53906 0,-2.96444 1.21368,-3.52148 4.58984,-3.52148 z m 19.31055,0 c 3.37616,0 4.5918,0.55704 4.5918,3.52148 0,2.96444 -1.21564,3.53907 -4.5918,3.53906 -3.37616,0 -4.5918,-0.57462 -4.5918,-3.53906 0,-2.96444 1.21564,-3.52148 4.5918,-3.52148 z m 85.47461,0 c 3.37617,0 4.58984,0.55704 4.58984,3.52148 0,2.96444 -1.21367,3.53907 -4.58984,3.53906 -3.37616,0 -4.5918,-0.57462 -4.5918,-3.53906 0,-2.96444 1.21564,-3.52148 4.5918,-3.52148 z m -29.38477,6.5625 c -1.23482,1.14606 -2.52571,2.30049 -3.73437,3.4414 1.85413,-0.63833 3.09834,-1.77104 3.73437,-3.4414 z M 69.9375,237.48047 c -0.275349,0 -0.538314,0.009 -0.800781,0.0195 0.342792,1.20286 0.753439,2.38028 1.128906,3.57227 3.112074,0.0399 4.261719,0.65144 4.261719,3.51171 0,1.97961 -0.560518,2.88222 -1.925782,3.27149 0.423977,1.13401 0.803912,2.28033 1.257813,3.40234 3.237001,-0.86553 4.869141,-3.01613 4.869141,-6.67383 0,-4.92015 -2.944477,-7.10351 -8.791016,-7.10351 z m 19.308594,0 c -5.846529,0 -8.789063,2.18336 -8.789063,7.10351 0,4.92015 2.942534,7.1211 8.789063,7.1211 5.846529,0 8.791015,-2.20095 8.791015,-7.1211 0,-4.92015 -2.944486,-7.10351 -8.791015,-7.10351 z m 19.310546,0 c -5.84637,0 -8.791015,2.18336 -8.791015,7.10351 0,4.92015 2.944645,7.1211 8.791015,7.1211 5.84654,0 8.78906,-2.20095 8.78906,-7.1211 0,-4.92015 -2.94252,-7.10351 -8.78906,-7.10351 z m 141.51172,0 c -5.84653,0 -8.79102,2.18336 -8.79102,7.10351 0,4.92015 2.94449,7.1211 8.79102,7.1211 5.84653,0 8.79102,-2.20095 8.79102,-7.1211 0,-4.92015 -2.94449,-7.10351 -8.79102,-7.10351 z m 19.30859,0 c -5.84654,0 -8.78906,2.18336 -8.78906,7.10351 0,4.92015 2.94252,7.1211 8.78906,7.1211 5.84638,0 8.79102,-2.20095 8.79102,-7.1211 0,-4.92015 -2.94464,-7.10351 -8.79102,-7.10351 z m -133.72851,0.0508 c -4.91183,0.33823 -7.39063,2.54433 -7.39063,7.05273 0,0.61951 0.0473,1.19415 0.14063,1.72852 2.30239,-2.89954 4.72098,-5.82539 7.25,-8.78125 z m -14.61524,0.17578 -2.57422,3.58203 h 3.35547 v 10.18946 h 2.58203 c 0.54257,-0.71851 1.12223,-1.44574 1.67969,-2.16797 v -11.60352 z m 67.10938,0 -2.57227,3.58203 h 3.35742 v 10.18946 h 4.25977 v -13.77149 z m 9.18359,0 -2.57226,3.58203 h 3.35351 v 10.18946 h 4.26172 v -13.77149 z m 9.17969,0 -2.57227,3.58203 h 3.35547 v 10.18946 h 4.25977 v -13.77149 z m 9.18359,0 -2.57422,3.58203 h 3.35547 v 10.18946 h 4.26172 v -13.77149 z m 9.17969,0 -2.57226,3.58203 h 3.35546 v 10.18946 h 4.25977 v -13.77149 z m 9.18164,0 -2.57226,3.58203 h 3.35546 v 10.18946 h 4.26172 v -13.77149 z m 47.80078,0 -2.57226,3.58203 h 3.35547 v 10.18946 h 4.26171 v -13.77149 z m 9.1836,0 -2.57422,3.58203 h 3.35547 v 10.18946 h 4.26171 v -12.31446 c -1.28683,-0.3429 -2.5775,-0.84093 -3.86132,-1.45703 z m 7.76367,1.97461 -1.15625,1.60742 h 2.34375 c -0.008,-0.4334 -0.0751,-0.99877 -0.0508,-1.33594 0.003,-0.0399 0.006,-0.0701 0.01,-0.10937 -0.35107,-0.015 -0.76967,-0.11825 -1.14648,-0.16211 z m -115.50781,0.60156 c -1.07719,1.09793 -2.05629,2.15351 -3.10352,3.24024 0.0458,0.31496 0.0723,0.66369 0.0723,1.06054 0,2.90338 -1.18077,3.51115 -4.40039,3.53516 -1.04734,1.11597 -2.14554,2.25274 -3.15821,3.35352 0.88813,0.15654 1.87652,0.23242 2.9668,0.23242 5.84653,0 8.791,-2.20095 8.79101,-7.1211 0,-1.78605 -0.39407,-3.20973 -1.16796,-4.30078 z m -94.044926,0.7793 c 3.376162,0 4.591797,0.55704 4.591797,3.52148 0,2.96444 -1.215635,3.54102 -4.591797,3.54102 -3.376162,0 -4.589844,-0.57658 -4.589844,-3.54102 0,-2.96444 1.213682,-3.52148 4.589844,-3.52148 z m 19.310546,0 c 3.37617,0 4.58984,0.55704 4.58984,3.52148 0,2.96444 -1.21367,3.54102 -4.58984,3.54102 -3.37601,0 -4.58984,-0.57658 -4.58984,-3.54102 0,-2.96444 1.21383,-3.52148 4.58984,-3.52148 z m 141.51172,0 c 3.37616,0 4.58984,0.55704 4.58984,3.52148 0,2.96444 -1.21368,3.54102 -4.58984,3.54102 -3.37616,0 -4.5918,-0.57658 -4.5918,-3.54102 0,-2.96444 1.21564,-3.52148 4.5918,-3.52148 z m 19.30859,0 c 3.37601,0 4.5918,0.55704 4.5918,3.52148 0,2.96444 -1.21579,3.54102 -4.5918,3.54102 -3.37617,0 -4.58984,-0.57658 -4.58984,-3.54102 0,-2.96444 1.21367,-3.52148 4.58984,-3.52148 z m 31.6211,6.06836 v 4.34766 h 2.08984 c -0.93009,-1.43729 -1.60899,-2.91068 -2.08984,-4.34766 z M 98.429688,263.21289 c -5.846529,0 -8.791016,2.18142 -8.791016,7.10156 0,4.92015 2.944487,7.125 8.791016,7.125 5.846542,0 8.789062,-2.20485 8.789062,-7.125 0,-4.92014 -2.94252,-7.10156 -8.789062,-7.10156 z m 94.654292,0 c -5.84652,0 -8.78906,2.18142 -8.78906,7.10156 0,4.38334 2.34241,6.60733 6.98633,7.04102 1.44157,-1.32498 2.74536,-2.55499 3.82031,-3.62109 -0.56551,0.0864 -1.2274,0.12304 -2.01758,0.12304 -3.37617,0 -4.58984,-0.57853 -4.58984,-3.54297 0,-2.96443 1.21367,-3.51757 4.58984,-3.51757 3.37617,0 4.5918,0.55314 4.5918,3.51757 0,0.35177 -0.0208,0.66754 -0.0566,0.95508 1.07401,-1.06693 2.22559,-2.21793 3.08789,-3.05469 0.27198,-0.26394 0.49597,-0.4698 0.74414,-0.70703 -0.99727,-2.94631 -3.78655,-4.29492 -8.36719,-4.29492 z m 38.6211,0 c -2.44175,0 -4.36876,0.38772 -5.79492,1.18945 0.76614,0.47986 1.5401,0.96931 2.00586,1.39258 0.56245,0.51116 0.75162,0.82908 1.14843,1.25781 0.67601,-0.18544 1.53206,-0.25586 2.64063,-0.25585 3.37617,0 4.58984,0.55314 4.58984,3.51757 0,2.51433 -0.88952,3.30635 -3.21484,3.49024 0.0315,0.10717 0.0836,0.25795 0.11523,0.35937 0.44657,1.43275 0.57701,2.17441 0.73242,3.00586 0.008,0.0439 0.007,0.0948 0.0156,0.13867 4.355,-0.53036 6.55273,-2.74978 6.55273,-6.99414 0,-4.92014 -2.94448,-7.10156 -8.79101,-7.10156 z m 19.30859,0 c -5.84653,0 -8.78906,2.18142 -8.78906,7.10156 0,4.92015 2.94253,7.125 8.78906,7.125 5.84653,0 8.79102,-2.20485 8.79102,-7.125 0,-4.92014 -2.94449,-7.10156 -8.79102,-7.10156 z m 28.49219,0 c -5.84653,0 -8.79102,2.18142 -8.79102,7.10156 0,4.92015 2.94449,7.125 8.79102,7.125 5.84653,0 8.791,-2.20485 8.79102,-7.125 0,-4.92014 -2.94449,-7.10156 -8.79102,-7.10156 z m 19.31055,0 c -5.84653,0 -8.78907,2.18142 -8.78907,7.10156 0,1.85161 0.41444,3.31841 1.2461,4.42774 0.93641,-0.80978 1.81278,-1.47532 2.76953,-2.32422 a 18.237801,18.237801 0 0 1 0.0801,-0.0684 c 0.0873,-0.0765 0.25072,-0.16297 0.34375,-0.24023 -0.1646,-0.46957 -0.24024,-1.05815 -0.24024,-1.79493 0,-2.96443 1.21367,-3.51757 4.58985,-3.51757 1.67438,0 2.81442,0.13923 3.54101,0.63867 1.33262,-0.62312 2.61071,-1.13191 3.92383,-1.63086 -1.39314,-1.76704 -3.88172,-2.5918 -7.46484,-2.5918 z m -182.74414,0.0742 c -4.73429,0.39941 -7.12308,2.60144 -7.12305,7.02734 0,1.31889 0.21836,2.43868 0.64062,3.37696 1.89033,-3.39143 4.17754,-6.89493 6.48243,-10.4043 z m -33.660161,0.15234 -1.607421,2.23828 c 0.248158,0.45235 0.512294,0.89609 0.765624,1.34571 h 1.625 v 2.85742 c 1.351127,2.26864 2.777897,4.48662 4.261719,6.67773 v -13.11914 z m 79.708981,0 c -1.01046,1.19211 -2.09787,2.42031 -3.05664,3.58399 h 0.42383 v 10.1875 h 4.25977 v -13.77149 z m 5.76758,0 -2.57617,3.58399 h 3.35742 v 10.1875 h 4.26172 v -13.77149 z m 9.17969,0 -2.57227,3.58399 h 3.35547 v 10.1875 h 4.25977 v -13.77149 z m 86.42187,0 -2.57421,3.58399 h 3.35546 v 10.1875 h 4.26172 v -13.77149 z m -165.060542,3.35743 c 3.376172,0 4.589842,0.55314 4.589842,3.51757 0,2.96444 -1.21367,3.54295 -4.589842,3.54297 -3.376162,0 -4.591797,-0.57853 -4.591797,-3.54297 0,-2.96443 1.215635,-3.51757 4.591797,-3.51757 z m 152.583982,0 c 3.37616,0 4.5918,0.55314 4.5918,3.51757 0,2.96444 -1.21564,3.54295 -4.5918,3.54297 -3.37617,0 -4.58984,-0.57853 -4.58984,-3.54297 0,-2.96443 1.21367,-3.51757 4.58984,-3.51757 z m 28.49219,0 c 3.37616,0 4.5918,0.55314 4.5918,3.51757 0,2.96444 -1.21564,3.54295 -4.5918,3.54297 -3.37617,0 -4.5918,-0.57853 -4.5918,-3.54297 0,-2.96443 1.21563,-3.51757 4.5918,-3.51757 z m -124.9375,5.93945 c -1.15825,1.48284 -2.46426,3.05244 -3.52344,4.47461 h 3.52344 z m 1.79102,16.20898 c -5.84653,0 -8.79102,2.18338 -8.79102,7.10352 0,4.92014 2.94449,7.12304 8.79102,7.12305 1.96982,0 3.6028,-0.25553 4.9121,-0.7754 0.93642,-0.78609 1.86503,-1.59683 3.00977,-2.50195 0.57872,-1.02478 0.86719,-2.30145 0.86719,-3.8457 0,-4.92014 -2.9427,-7.10352 -8.78906,-7.10352 z m 19.30859,0 c -5.84653,0 -8.79101,2.18338 -8.79102,7.10352 0,0.57657 0.0461,1.11246 0.12696,1.61523 1.56179,-1.22222 2.86225,-2.34159 4.37695,-3.55468 0.29043,-0.69414 0.82097,-1.08962 1.61914,-1.31446 1.57486,-1.27229 3.12446,-2.51665 4.61719,-3.75195 -0.61009,-0.062 -1.2579,-0.0977 -1.94922,-0.0977 z m 84.5293,0 c -5.84653,0 -8.79102,2.18338 -8.79102,7.10352 0,2.06363 0.52392,3.64353 1.55664,4.78906 1.23186,-0.6403 2.45848,-1.28627 3.64453,-1.92969 -0.70511,-0.51755 -1.00195,-1.39671 -1.00195,-2.85937 0,-2.96444 1.21563,-3.51953 4.5918,-3.51953 2.58579,0 3.89578,0.33581 4.37109,1.82031 1.18619,-0.71611 2.3617,-1.44919 3.51953,-2.18555 -1.27566,-2.20119 -3.9077,-3.21875 -7.89062,-3.21875 z m -117.26758,0.22657 c -0.77274,1.26386 -1.37474,2.40701 -2.02539,3.58398 h 0.2207 v 10.18945 h 4.26172 v -13.77343 z m 101.25,0 -2.57227,3.58398 h 3.35547 v 10.18945 h 4.01953 c 0.0854,-0.0426 0.15705,-0.0845 0.24219,-0.12695 v -13.64648 z m -9.42774,0.0234 c -0.0317,1.21659 -0.0844,2.42623 -0.20117,3.64258 1.23992,0.41052 1.74414,1.316 1.74414,3.21094 0,2.38819 -0.81111,3.21549 -2.88281,3.45117 -0.30749,1.23793 -0.67287,2.45584 -1.09766,3.65625 5.43615,-0.15294 8.18164,-2.3637 8.18164,-7.10742 0,-3.9739 -1.92502,-6.159 -5.74414,-6.85352 z m -78.39257,3.33399 c 3.376,0 4.58984,0.55509 4.58984,3.51953 0,2.96444 -1.21384,3.54101 -4.58984,3.54101 -3.37617,0 -4.5918,-0.57657 -4.5918,-3.54101 0,-2.96444 1.21563,-3.51953 4.5918,-3.51953 z m -16.9629,22.37695 -2.57421,3.58203 h 3.35546 v 10.18945 h 4.26172 v -13.77148 z m 9.17969,0 -2.57226,3.58203 h 3.35547 v 10.18945 h 4.26171 v -1.64843 c -0.90472,-1.86895 -1.62482,-3.76951 -1.83203,-5.50196 -0.34964,-2.92344 -0.14221,-4.93531 0.21485,-6.62109 z m -16.87305,0.49219 c -0.22352,1.46574 -0.36001,3.07036 -0.41406,4.67578 0.14714,0.45519 0.22071,1.00879 0.22071,1.70703 0,0.96248 -0.12949,1.67234 -0.41797,2.19336 -0.0318,0.43309 -0.0425,1.47482 -0.0762,1.58398 0.0434,0.0474 0.10266,0.14834 0.18946,0.36133 a 18.237801,18.237801 0 0 1 0.10547,0.26953 c 0.13965,0.35825 0.39684,0.91638 1.31445,1.56836 2.04908,-1.11562 3.08398,-3.06796 3.08398,-5.97656 0,-3.31742 -1.34183,-5.38449 -4.00586,-6.38281 z m 196.52344,0.78906 c -0.22799,0.0478 -0.44746,0.11811 -0.67578,0.16406 -0.61409,0.67427 -1.25664,1.31851 -1.875,1.98828 0.17087,-0.0176 0.33333,-0.0404 0.52149,-0.0508 0.66646,-0.71223 1.37422,-1.37594 2.02929,-2.10156 z m -254.548826,1.50195 c 0.497808,0.53884 0.952328,1.11541 1.400391,1.69727 0.03821,-0.0532 0.08049,-0.0999 0.123047,-0.14844 -0.513537,-0.51138 -1.032085,-1.01918 -1.523438,-1.54883 z m 249.058596,3.77344 c -1.18232,1.24288 -2.37201,2.47736 -3.58203,3.6875 0.0276,0.0616 0.0586,0.11974 0.0879,0.17969 1.18178,-1.12312 2.32982,-2.28521 3.48047,-3.44336 -2.6e-4,-0.0382 -0.006,-0.0665 -0.006,-0.10547 0,-0.11772 0.0157,-0.20812 0.0195,-0.31836 z m -25.50195,21.7168 c -1.1164,0.7588 -2.27302,1.45167 -3.40626,2.18359 0.003,0.006 0.007,0.0102 0.01,0.0156 1.13168,-0.73296 2.28596,-1.43014 3.40039,-2.18946 -0.002,-0.003 -0.002,-0.007 -0.004,-0.01 z m -11.35743,7.05469 c -1.17883,0.67375 -2.37799,1.30926 -3.57226,1.95507 0.008,0.009 0.0159,0.0187 0.0234,0.0273 1.19443,-0.64806 2.392,-1.28897 3.57032,-1.96485 -0.008,-0.007 -0.0143,-0.011 -0.0215,-0.0176 z m -7.21484,3.95117 c -0.13903,0.0709 -0.27289,0.15408 -0.41211,0.22461 h 0.0918 c 0.10859,-0.0553 0.21184,-0.12048 0.32031,-0.17578 z m -30.49023,12.05078 c -0.10153,0.01 -0.20151,0.0197 -0.30079,0.0312 -1.21716,0.34995 -2.41262,0.76434 -3.63867,1.08789 -0.0598,0.0342 -0.12359,0.0639 -0.18164,0.0996 1.39053,-0.36442 2.74349,-0.8205 4.1211,-1.21875 z m -9.95899,2.49219 c -1.71589,0.38807 -3.412,0.83759 -5.14258,1.17382 0.032,0.007 0.0589,0.0166 0.0898,0.0234 1.71506,-0.33221 3.39186,-0.77347 5.08984,-1.15625 -0.0115,-0.0148 -0.0254,-0.0263 -0.0371,-0.041 z m -11.54492,2.20117 c -1.52553,0.23786 -3.04109,0.51726 -4.57617,0.71484 -9.7e-4,0.008 -0.003,0.0174 -0.004,0.0254 1.52991,-0.19451 3.03644,-0.46488 4.55469,-0.69922 0.009,-0.0131 0.017,-0.0281 0.0254,-0.041 z" />
      <path
         id="path108808"
         style="color:#000000;fill:#005858;fill-opacity:1;stroke:#000000;stroke-width:4.1;stroke-linecap:round;stroke-linejoin:round;stroke-miterlimit:4;stroke-dasharray:none;stroke-opacity:1;paint-order:markers stroke fill"
         transform="matrix(0.27418327,0,0,0.27418327,-272.89003,22.713306)"
         d="M 200.32812,9.6191406 A 191.0672,191.0672 0 0 0 82.578125,50.287109 c 1.003017,-0.0029 1.661362,-0.105851 2.6875,-0.103515 0.0029,9e-6 0.004,-10e-6 0.0078,0 18.827152,8.88e-4 31.832592,0.570112 46.492182,2.123047 l 0.61329,0.05859 3.95117,-1.792968 c 6.45652,-2.943317 16.81566,-7.203271 26.76172,-11.148438 9.95286,-3.947878 17.96037,-7.137749 23.77148,-8.84375 a 18.2378,18.2378 0 0 1 0.2207,-0.0625 c 3.33,-0.932438 6.4629,-1.812209 9.92383,-2.453125 a 18.2378,18.2378 0 0 1 0.11524,-0.02148 c 3.74705,-0.669113 5.00592,-0.52161 7.50976,-0.582031 2.49057,-0.06012 5.25907,-0.06204 7.99414,0.0059 1.92101,0.03879 3.80632,0.143473 5.67383,0.292969 -0.0219,-0.461399 -0.22266,-0.531781 -0.22266,-1.035157 0,-6.05815 3.2899,-10.928097 5.56641,-13.132812 1.38564,-1.341913 2.12828,-1.571868 3.06641,-2.107422 A 191.0672,191.0672 0 0 0 200.32812,9.6191406 Z M 303.88477,60.908203 c 4.58762,9.592947 6.27335,20.268243 6.26171,31.484375 a 154.69229,154.69229 0 0 1 8.58594,9.394532 c 0.0109,-1.38233 0.15727,-1.07195 0.16602,-2.886719 0,-6.580605 -0.0617,-10.16879 -0.17188,-11.734375 -0.11051,-1.568925 -0.014,-0.957761 -0.52148,-2.765625 a 18.2378,18.2378 0 0 1 -0.0352,-0.132813 c -2.38075,-8.758966 -6.36651,-15.609865 -12.3125,-21.515625 -0.63793,-0.631661 -1.29873,-1.242254 -1.97265,-1.84375 z M 35.863281,103.55469 A 191.0672,191.0672 0 0 0 9.2597656,200.6875 191.0672,191.0672 0 0 0 200.32812,391.75391 191.0672,191.0672 0 0 0 381.23242,262.00977 c -15.02619,20.10838 -38.28409,34.66647 -62.85937,37.91992 a 154.69229,154.69229 0 0 1 -101.62891,54.15625 c -14.83493,4.41813 -30.32048,8.25657 -46.16602,10.97461 a 18.2378,18.2378 0 0 1 -0.0508,0.01 c -6.79053,1.14493 -14.41281,1.58615 -21.8125,1.65235 -1.84989,0.0182 -3.58295,0.0468 -5.26172,0.0508 -5.0338,0.0109 -9.58818,-0.21567 -15.38281,-1.7793 -13.13253,-3.53704 -25.44777,-12.15466 -30.681638,-25.4082 -1.738579,-4.33473 -2.673838,-10.89594 -2.673828,-17.59766 a 18.2378,18.2378 0 0 1 0,-0.10351 c 0.01457,-2.56843 0.814818,-5.12206 1.097656,-7.65821 A 154.69229,154.69229 0 0 1 45.636719,200.6875 154.69229,154.69229 0 0 1 74.503906,110.92578 c -5.848314,-1.38563 -10.130208,-2.83324 -17.009765,-4.11914 a 18.2378,18.2378 0 0 1 -0.05859,-0.0117 c -5.816807,-1.10674 -13.467763,-2.00818 -21.572266,-3.24023 z m 351.751949,59.37109 c -1.56391,19.93132 -5.81501,41.418 -13.33984,61.50586 0.68141,0.0911 1.55237,0.21936 3.12891,0.73828 1.61184,0.53056 4.66352,0.77958 8.45898,5.75586 1.54885,1.76736 1.5936,3.11767 2.26953,4.67578 a 191.0672,191.0672 0 0 0 3.26172,-34.91406 191.0672,191.0672 0 0 0 -3.7793,-37.76172 z m -31.03711,89.71094 c 0.36107,0.54158 0.71586,1.02352 1.06446,1.48047 0.37424,0.42739 0.77655,0.85858 1.21484,1.29687 a 18.2378,18.2378 0 0 1 -2.2793,-2.77734 z" />
      <path
         id="path108802"
         style="color:#000000;fill:#0397b1;fill-opacity:1;stroke:#000000;stroke-width:4.1;stroke-linecap:round;stroke-linejoin:round;stroke-miterlimit:4;stroke-dasharray:none;stroke-opacity:1;paint-order:markers stroke fill"
         transform="matrix(0.27418327,0,0,0.27418327,-272.89003,22.713306)"
         d="m 243.88672,26.359375 c -4.37673,-0.01254 -7.57227,0.09759 -7.57227,0.365234 0,0.178455 1.01068,0.710768 2.25977,1.246094 16.17882,6.661866 32.65581,18.499943 42.11328,30.158203 10.40917,12.90735 13.20455,22.542276 11.53906,40.267578 -1.48699,16.000366 -4.93545,23.792636 -11.35937,25.517576 -11.59874,3.15249 -18.20239,-19.09167 -12.49219,-41.753904 0.59479,-2.200798 0.83365,-4.044922 0.5957,-4.044922 -1.1896,0 -10.41108,7.673164 -14.93164,12.431641 -12.37205,12.966835 -20.63765,28.133175 -25.1582,45.917965 -2.61716,10.17124 -3.39186,16.775 -3.57031,29.50391 l -0.17774,12.01563 -9.16015,7.55273 c -45.8598,38.12726 -80.71552,76.43421 -93.50391,102.84375 -7.1377,14.63229 -9.45809,22.83942 -9.51758,33.60547 0,6.42388 0.17943,7.9097 1.36914,10.82422 2.73613,7.01877 9.21904,12.07599 18.49805,14.57422 5.9481,1.60597 24.44703,1.42791 34.67773,-0.29688 32.59553,-5.59119 64.47592,-15.46516 88.74414,-27.36133 19.15286,-9.45747 33.54706,-19.15265 49.9043,-33.66601 3.86628,-3.3904 3.98637,-3.45099 8.56641,-3.98633 18.1417,-2.02235 40.74497,-15.58327 52.34375,-31.3457 3.093,-4.16367 5.11363,-7.79263 4.69726,-8.20899 -0.11889,-0.17846 -2.61671,2.9e-4 -5.53125,0.35742 -6.95929,0.77326 -19.86718,0.77326 -19.86718,0 0,-0.35688 1.19162,-2.97505 2.61914,-5.83007 12.78841,-25.63627 21.71005,-61.26483 21.76953,-86.72266 0,-10.2902 -0.47534,-9.81377 -4.22266,4.2832 -9.10055,34.43945 -18.26132,54.66406 -32.29883,71.55664 -4.10415,4.93692 -11.30275,11.9528 -14.57422,14.33203 -2.26024,1.54651 -2.25866,1.54663 1.72657,-4.46093 13.79956,-20.81833 25.7552,-50.26005 31.16797,-76.43164 3.03351,-14.87023 3.6289,-21.17525 3.6289,-38.36524 0,-16.59514 -0.59659,-22.960332 -3.1543,-33.607421 l -1.07031,-4.460937 -0.47461,2.974609 c -6.12652,40.744419 -8.86288,54.248059 -15.04882,73.103519 -7.73253,23.73287 -19.09375,43.71644 -34.67774,61.02539 -2.31976,2.55768 -2.31969,2.49952 3.27148,-9.51563 16.35723,-35.15321 26.46935,-64.59702 30.75196,-89.51953 1.13012,-6.54286 1.3077,-9.99214 1.36719,-22.304686 0,-13.323722 -0.11803,-14.988151 -1.36719,-19.449219 -3.15249,-11.598779 -8.86389,-21.532759 -17.07227,-29.681641 -12.55048,-12.431498 -29.85906,-19.925807 -52.40234,-22.542968 -4.5354,-0.520457 -15.1117,-0.87948 -22.40625,-0.900391 z M 215.61523,279.2793 c 0.17835,-0.0594 0.597,1.9022 0.77539,4.40039 0.9517,9.69542 -1.07267,16.47692 -5.89062,19.98633 -8.02992,5.82913 -35.39141,16.59551 -40.44727,15.82226 -0.77327,-0.11889 1.24918,-1.96331 6.54297,-6.12695 13.26423,-10.2902 25.27972,-20.52102 32.06055,-27.36133 3.62833,-3.62834 6.72105,-6.66122 6.95898,-6.7207 z" />
      <path
         id="path108796"
         style="color:#000000;fill:#0397b1;fill-opacity:1;stroke:#000000;stroke-width:4.1;stroke-linecap:round;stroke-linejoin:round;stroke-miterlimit:4;stroke-dasharray:none;stroke-opacity:1;paint-order:markers stroke fill"
         transform="matrix(0.27418327,0,0,0.27418327,-272.89003,22.713306)"
         d="m 208.54297,45.652344 c -3.64134,-0.0029 -6.9638,0.120703 -8.21289,0.34375 -1.60601,0.297389 -5.35406,1.247342 -8.32813,2.080078 -6.4834,1.903389 -36.63934,13.859428 -48.11914,19.09375 l -8.38867,3.808594 -5.65039,-0.53711 C 115.80628,68.95439 103.731,68.419922 85.232422,68.419922 59.060842,68.360479 42.109781,69.965949 25.455078,73.951172 18.376898,75.616643 6.9576262,79.42331 6.0058594,80.375 c -0.2972161,0.29739 2.4972198,0.833637 6.4824216,1.25 11.836629,1.249099 34.914736,4.69818 48.357422,7.255859 31.822294,5.948085 54.722897,13.383231 62.039067,20.164061 3.27146,2.97404 6.95848,9.87405 10.52734,19.62891 3.98525,10.885 6.48473,21.65052 8.03125,34.08203 0.2378,1.54651 0.65378,2.67542 0.95117,2.4375 1.30858,-0.77325 4.40168,-8.1478 5.88867,-14.21484 2.8551,-11.30137 3.80664,-20.81996 3.80664,-37.47461 0,-14.097004 -0.53499,-20.280255 -2.3789,-26.763676 -0.29725,-1.070653 0.65491,-1.606036 8.20898,-4.580078 15.8219,-6.186011 26.64784,-9.459004 37.94922,-11.421875 12.96684,-2.26027 36.87608,-3.925781 55.79102,-3.925781 5.9481,0 10.82617,-0.17722 10.82617,-0.474609 -0.0595,-1.308581 -11.83657,-9.340054 -18.73633,-12.730469 -11.36086,-5.591203 -19.51025,-7.672239 -31.52539,-7.910156 -1.21936,-0.02972 -2.46786,-0.04396 -3.68164,-0.04492 z" />
      <path
         id="path108001"
         style="color:#000000;font-size:12.7px;font-family:Ethnocentric;-inkscape-font-specification:Ethnocentric;fill:#ffffff;stroke:#000000;stroke-width:4.24876134;stroke-linecap:round;stroke-linejoin:miter;paint-order:markers stroke fill;fill-opacity:1;stroke-opacity:1;stroke-miterlimit:4;stroke-dasharray:none"
         transform="matrix(0.26458333,0,0,0.26458333,0.89865315,0.14004313)"
         d="m -993.47461,428.74805 c -2.46584,-5e-4 -4.58912,1.21972 -6.37305,3.39648 -3.47344,4.23836 -3.10014,9.64898 2.77539,15.25391 l 12.4336,11.86328 c 1.67384,1.59677 2.0035,2.82897 0.97656,4.08203 -1.05713,1.28995 -2.23237,1.08892 -3.90625,-0.50781 l -17.28514,-16.48828 -9.7383,2.0039 21.28125,20.30274 c 6.96873,6.64769 12.28195,6.33039 16.41993,1.28125 3.68485,-4.49636 2.52127,-9.61216 -3.04688,-14.92383 l -12.43555,-11.86328 c -1.63971,-1.5642 -2.03279,-2.79186 -1.00586,-4.04492 1.02694,-1.25307 2.1767,-0.94502 3.81641,0.61914 l 15.84961,15.11914 9.79883,-2.07813 -19.84766,-18.93359 c -3.68399,-3.51428 -6.91828,-5.08146 -9.71289,-5.08203 z" />
      <path
         id="path108007"
         style="color:#000000;font-size:12.7px;font-family:Ethnocentric;-inkscape-font-specification:Ethnocentric;fill:#ffffff;stroke:#000000;stroke-width:4.24876134;stroke-linecap:round;stroke-linejoin:miter;paint-order:markers stroke fill;fill-opacity:1;stroke-opacity:1;stroke-miterlimit:4;stroke-dasharray:none"
         transform="matrix(0.26458333,0,0,0.26458333,0.89865315,0.14004313)"
         d="m -963.90625,452.64062 -16.0625,27.98047 8.0625,5.38672 6.19531,-10.78906 15.42774,10.30859 -6.19532,10.79102 7.98633,5.33594 16.0625,-27.97852 -7.98437,-5.33594 -5.69141,9.91211 -15.42773,-10.31054 5.68945,-9.91211 z" />
      <path
         style="color:#000000;font-size:12.7px;font-family:Ethnocentric;-inkscape-font-specification:Ethnocentric;fill:#ffffff;stroke:#000000;stroke-width:1.12415142;stroke-linecap:round;stroke-linejoin:miter;paint-order:markers stroke fill;fill-opacity:1;stroke-opacity:1;stroke-miterlimit:4;stroke-dasharray:none"
         d="m -236.76812,138.7057 -2.07204,-9.30692 c -0.14364,-0.64602 -0.46147,-1.23908 -1.15916,-1.53006 -0.73145,-0.30505 -1.34943,-0.0604 -1.83416,0.28168 l -7.45933,5.33182 2.75701,1.14983 5.46487,-3.91687 0.58042,2.7121 c 0.10837,0.49175 0.24511,1.12093 0.34326,1.49679 -0.3514,-0.17446 -0.88029,-0.39504 -1.33042,-0.58277 l -1.89052,-0.78845 -2.15483,1.50158 z"
         id="path108013" />
      <path
         style="color:#000000;font-size:12.7px;font-family:Ethnocentric;-inkscape-font-specification:Ethnocentric;fill:#ffffff;stroke:#000000;stroke-width:1.12415142;stroke-linecap:round;stroke-linejoin:miter;paint-order:markers stroke fill;fill-opacity:1;stroke-opacity:1;stroke-miterlimit:4;stroke-dasharray:none"
         d="m -225.75359,139.06835 c -0.4466,-0.70753 -0.69259,-1.07229 -0.92969,-1.34276 1.35311,-0.0301 2.30755,-0.98326 2.52821,-2.31586 0.40526,-2.44737 -1.7732,-3.50193 -3.57844,-3.84988 l -5.10692,-0.98432 -1.97252,1.92051 6.91216,1.33227 c 0.84324,0.16253 1.29876,0.59411 1.18843,1.26041 -0.0976,0.58942 -0.75296,0.84656 -1.51306,0.70005 l -6.91216,-1.33227 -0.72564,4.3822 2.45845,0.47385 0.37555,-2.26798 3.77675,0.72794 1.39406,2.60906 3.28981,0.63409 z"
         id="path108019" />
      <path
         style="color:#000000;font-size:12.7px;font-family:Ethnocentric;-inkscape-font-specification:Ethnocentric;fill:#ffffff;stroke:#000000;stroke-width:1.12415142;stroke-linecap:round;stroke-linejoin:miter;paint-order:markers stroke fill;fill-opacity:1;stroke-opacity:1;stroke-miterlimit:4;stroke-dasharray:none"
         d="m -216.7667,138.17208 c -1.02568,-0.92666 -1.64675,-1.41765 -2.10079,-1.76294 0.5231,-0.33059 1.02275,-0.7136 2.10766,-1.56946 l 3.12054,-2.45243 -3.61903,-0.0544 -2.35566,2.08643 c -0.74445,0.6527 -1.18445,1.08867 -1.50214,1.39632 0.03,-0.45517 0.061,-0.98842 0.0679,-1.52204 l 0.0261,-2.01733 -2.5092,-0.0378 -0.11252,8.70708 2.50919,0.0377 0.0323,-2.49889 c 0.005,-0.41648 -0.0132,-0.84634 -0.02,-1.24999 0.27361,0.3035 0.65475,0.68676 1.47703,1.48019 l 2.40721,2.32731 3.77585,0.0568 z"
         id="path108025" />
      <path
         style="color:#000000;font-size:12.7px;font-family:Ethnocentric;-inkscape-font-specification:Ethnocentric;fill:#ffffff;stroke:#000000;stroke-width:1.12415142;stroke-linecap:round;stroke-linejoin:miter;paint-order:markers stroke fill;fill-opacity:1;stroke-opacity:1;stroke-miterlimit:4;stroke-dasharray:none"
         d="m -209.42698,131.41562 c -3.88746,0.64429 -5.63702,2.33016 -5.19921,5.405 0.4378,3.07483 2.57754,4.12929 6.465,3.485 3.87553,-0.64231 5.63518,-2.34302 5.19738,-5.41786 -0.43781,-3.07483 -2.58764,-4.11444 -6.46317,-3.47214 z m 0.94705,6.65142 c -2.48034,0.41108 -3.42599,0.19907 -3.68977,-1.65355 -0.26378,-1.85262 0.58111,-2.34821 3.06145,-2.75928 2.48035,-0.41108 3.42416,-0.21194 3.68794,1.64068 0.26379,1.85262 -0.57928,2.36107 -3.05962,2.77215 z"
         id="path108031" />
      <path
         style="color:#000000;font-size:12.7px;font-family:Ethnocentric;-inkscape-font-specification:Ethnocentric;fill:#ffffff;stroke:#000000;stroke-width:1.12415142;stroke-linecap:round;stroke-linejoin:miter;paint-order:markers stroke fill;fill-opacity:1;stroke-opacity:1;stroke-miterlimit:4;stroke-dasharray:none"
         d="m -192.74787,130.97308 c -0.75924,-2.37485 -3.21779,-3.31875 -5.88662,-2.32562 l -3.60405,1.34117 -0.821,2.70129 5.10954,-1.9014 c 1.27739,-0.47534 2.52968,0.009 2.89946,1.16536 0.37765,1.18128 -0.31722,2.32106 -1.62882,2.80914 l -2.73726,1.01861 -0.96379,-3.01472 -2.37229,0.88279 1.64042,5.13117 5.10954,-1.9014 c 2.64602,-0.98465 4.01804,-3.51923 3.25487,-5.90639 z"
         id="path108037" />
      <path
         id="path108043"
         style="color:#000000;font-size:12.7px;font-family:Ethnocentric;-inkscape-font-specification:Ethnocentric;fill:#ffffff;fill-opacity:1;stroke:#000000;stroke-width:4.1;stroke-linecap:round;stroke-linejoin:miter;stroke-miterlimit:4;stroke-dasharray:none;stroke-opacity:1;paint-order:markers stroke fill"
         transform="matrix(0.27418327,0,0,0.27418327,-272.89003,22.713306)"
         d="m 317.45703,362.45312 -30.0293,17.43555 13.94922,27.9668 24.95508,-14.48828 1.56641,-10.18164 -22.04688,12.80078 -1.89844,-3.80469 15.92579,-9.24609 1.4414,-9.03125 -20.53711,11.92382 -1.66797,-3.34374 16.77735,-9.74219 z" />
      <path
         id="path108049"
         style="color:#000000;font-size:12.7px;font-family:Ethnocentric;-inkscape-font-specification:Ethnocentric;fill:#ffffff;fill-opacity:1;stroke:#000000;stroke-width:4.1;stroke-linecap:round;stroke-linejoin:miter;stroke-miterlimit:4;stroke-dasharray:none;stroke-opacity:1;paint-order:markers stroke fill"
         transform="matrix(0.27418327,0,0,0.27418327,-272.89003,22.713306)"
         d="m 346.83008,342.05273 c -3.87901,0.0216 -7.95986,2.42594 -11.0957,5.05469 l -14.94141,12.52539 0.008,10.45508 20.2207,-16.95312 c 2.46697,-2.06807 4.66449,-2.34585 6.06836,-0.39649 1.24187,1.72439 0.28812,4.26675 -1.93554,6.13086 l -20.22266,16.95313 9.23242,12.82031 7.19336,-6.0293 -4.7793,-6.63476 11.05079,-9.26172 9.95507,2.29492 9.625,-8.06836 -7.78515,-1.29102 c -2.86721,-0.42205 -4.38448,-0.59319 -5.64258,-0.56054 3.22813,-4.02873 3.16713,-9.14434 0.35937,-13.04297 -2.09484,-2.90877 -4.65649,-4.01087 -7.31054,-3.9961 z" />
      <path
         style="color:#000000;font-size:12.7px;font-family:Ethnocentric;-inkscape-font-specification:Ethnocentric;fill:#ffffff;stroke:#000000;stroke-width:1.12415142;stroke-linecap:round;stroke-linejoin:miter;paint-order:markers stroke fill;fill-opacity:1;stroke-opacity:1;stroke-miterlimit:4;stroke-dasharray:none"
         d="m -173.11685,114.95182 c -0.38855,0.46328 -0.69102,0.57174 -0.99519,0.27481 -0.30416,-0.29693 -0.22534,-0.62372 0.16321,-1.087 l 3.75591,-4.47841 -0.48002,-2.80325 -4.70299,5.60765 c -1.64321,1.95931 -1.58959,3.48617 -0.46239,4.58656 1.02879,1.00432 2.35711,0.91429 3.74939,-0.74581 l 2.94646,-3.51324 c 0.39664,-0.47293 0.69996,-0.563 1.00413,-0.26607 0.3131,0.30566 0.26027,0.64026 -0.13637,1.1132 l -4.09589,4.88377 0.46213,2.78579 5.04296,-6.01303 c 1.65131,-1.96895 1.58959,-3.48617 0.36399,-4.68262 -1.09142,-1.06545 -2.34945,-0.74882 -3.66888,0.82441 z"
         id="path108055" />
    </g>
    <g
       id="path21-1-4"
       transform="matrix(0.01630867,0,0,-0.01630867,-37.960644,136.99525)"
       style="fill:#ffffff;stroke:none" />
    <g
       id="path23-8-0"
       transform="matrix(0.01630867,0,0,-0.01630867,-37.960644,136.99525)"
       style="fill:#ffffff;stroke:none" />
  </g>
</svg>
